<svg width="1349" height="651" xmlns="http://www.w3.org/2000/svg"><g><path d="M-27,-69L-37,48L59,-51Z" fill="#fff6ef" stroke="#fff6ef"/><path d="M-27,-69L59,-51L394,-61Z" fill="#feead7" stroke="#feead7"/><path d="M-27,-69L394,-61L542,-92Z" fill="#fedcbe" stroke="#fedcbe"/><path d="M59,-51L-37,48L37,68Z" fill="#fff2e4" stroke="#fff2e4"/><path d="M59,-51L37,68L112,36Z" fill="#ffeedd" stroke="#ffeedd"/><path d="M59,-51L112,36L194,-26Z" fill="#ffecdb" stroke="#ffecdb"/><path d="M59,-51L194,-26L206,-33Z" fill="#fee9d6" stroke="#fee9d6"/><path d="M59,-51L206,-33L394,-61Z" fill="#fee3cb" stroke="#fee3cb"/><path d="M194,-26L112,36L183,116Z" fill="#fee4c4" stroke="#fee4c4"/><path d="M194,-26L183,116L274,21Z" fill="#fedfbd" stroke="#fedfbd"/><path d="M194,-26L274,21L206,-33Z" fill="#fee3ca" stroke="#fee3ca"/><path d="M206,-33L274,21L394,-61Z" fill="#feddbf" stroke="#feddbf"/><path d="M394,-61L274,21L395,40Z" fill="#fed7b7" stroke="#fed7b7"/><path d="M394,-61L395,40L466,-32Z" fill="#fed1ae" stroke="#fed1ae"/><path d="M394,-61L466,-32L542,-92Z" fill="#fecda8" stroke="#fecda8"/><path d="M466,-32L395,40L447,41Z" fill="#fecea6" stroke="#fecea6"/><path d="M466,-32L447,41L525,11Z" fill="#fecba3" stroke="#fecba3"/><path d="M466,-32L525,11L542,-92Z" fill="#fec9a2" stroke="#fec9a2"/><path d="M542,-92L525,11L648,-78Z" fill="#fdc39b" stroke="#fdc39b"/><path d="M542,-92L648,-78L939,-78Z" fill="#f7b58f" stroke="#f7b58f"/><path d="M542,-92L939,-78L1377,-88Z" fill="#e2a284" stroke="#e2a284"/><path d="M648,-78L525,11L650,77Z" fill="#fbbf97" stroke="#fbbf97"/><path d="M648,-78L650,77L722,47Z" fill="#f9b78d" stroke="#f9b78d"/><path d="M648,-78L722,47L759,-39Z" fill="#f7b58f" stroke="#f7b58f"/><path d="M648,-78L759,-39L939,-78Z" fill="#f4ad89" stroke="#f4ad89"/><path d="M759,-39L722,47L806,45Z" fill="#f5ad84" stroke="#f5ad84"/><path d="M759,-39L806,45L874,-41Z" fill="#f2aa86" stroke="#f2aa86"/><path d="M759,-39L874,-41L939,-78Z" fill="#eda785" stroke="#eda785"/><path d="M874,-41L806,45L929,71Z" fill="#eca47c" stroke="#eca47c"/><path d="M874,-41L929,71L939,-78Z" fill="#e6a484" stroke="#e6a484"/><path d="M939,-78L929,71L1033,13Z" fill="#e0a183" stroke="#e0a183"/><path d="M939,-78L1033,13L1090,-19Z" fill="#da9e82" stroke="#da9e82"/><path d="M939,-78L1090,-19L1140,-24Z" fill="#d59c82" stroke="#d59c82"/><path d="M939,-78L1140,-24L1233,-57Z" fill="#d09981" stroke="#d09981"/><path d="M939,-78L1233,-57L1377,-88Z" fill="#c69580" stroke="#c69580"/><path d="M1090,-19L1033,13L1137,106Z" fill="#d29775" stroke="#d29775"/><path d="M1090,-19L1137,106L1185,36Z" fill="#cc9371" stroke="#cc9371"/><path d="M1090,-19L1185,36L1140,-24Z" fill="#cc9780" stroke="#cc9780"/><path d="M1140,-24L1185,36L1233,-57Z" fill="#c69580" stroke="#c69580"/><path d="M1233,-57L1185,36L1265,62Z" fill="#c1917b" stroke="#c1917b"/><path d="M1233,-57L1265,62L1316,38Z" fill="#bc8e7a" stroke="#bc8e7a"/><path d="M1233,-57L1316,38L1377,-88Z" fill="#b88e80" stroke="#b88e80"/><path d="M1377,-88L1316,38L1413,61Z" fill="#b08a7e" stroke="#b08a7e"/><path d="M1377,-88L1413,61L1462,-66Z" fill="#ab8780" stroke="#ab8780"/><path d="M1462,-66L1413,61L1491,167Z" fill="#a67f6c" stroke="#a67f6c"/><path d="M-37,48L-42,124L37,68Z" fill="#ffefd3" stroke="#ffefd3"/><path d="M37,68L-42,124L73,119Z" fill="#ffe9c5" stroke="#ffe9c5"/><path d="M37,68L73,119L112,36Z" fill="#ffe8c7" stroke="#ffe8c7"/><path d="M112,36L73,119L183,116Z" fill="#ffe2b9" stroke="#ffe2b9"/><path d="M274,21L183,116L230,119Z" fill="#fed9a9" stroke="#fed9a9"/><path d="M274,21L230,119L308,178Z" fill="#fed39b" stroke="#fed39b"/><path d="M274,21L308,178L395,40Z" fill="#fed19d" stroke="#fed19d"/><path d="M395,40L308,178L416,124Z" fill="#fec98a" stroke="#fec98a"/><path d="M395,40L416,124L447,41Z" fill="#feca95" stroke="#feca95"/><path d="M447,41L416,124L569,138Z" fill="#fec181" stroke="#fec181"/><path d="M447,41L569,138L525,11Z" fill="#fec28a" stroke="#fec28a"/><path d="M525,11L569,138L650,77Z" fill="#fcba7e" stroke="#fcba7e"/><path d="M650,77L569,138L694,137Z" fill="#fab06a" stroke="#fab06a"/><path d="M650,77L694,137L722,47Z" fill="#f8ad70" stroke="#f8ad70"/><path d="M722,47L694,137L706,152Z" fill="#f7a966" stroke="#f7a966"/><path d="M722,47L706,152L806,45Z" fill="#f6a86d" stroke="#f6a86d"/><path d="M806,45L706,152L823,167Z" fill="#f4a05c" stroke="#f4a05c"/><path d="M806,45L823,167L929,71Z" fill="#ee9e62" stroke="#ee9e62"/><path d="M929,71L823,167L863,211Z" fill="#eb944e" stroke="#eb944e"/><path d="M929,71L863,211L986,159Z" fill="#e5924e" stroke="#e5924e"/><path d="M929,71L986,159L1033,13Z" fill="#de9865" stroke="#de9865"/><path d="M1033,13L986,159L1137,106Z" fill="#d6925f" stroke="#d6925f"/><path d="M1185,36L1137,106L1231,136Z" fill="#c68b5d" stroke="#c68b5d"/><path d="M1185,36L1231,136L1265,62Z" fill="#c18a63" stroke="#c18a63"/><path d="M1265,62L1231,136L1385,126Z" fill="#b98358" stroke="#b98358"/><path d="M1265,62L1385,126L1316,38Z" fill="#b68564" stroke="#b68564"/><path d="M1316,38L1385,126L1413,61Z" fill="#b08264" stroke="#b08264"/><path d="M1413,61L1385,126L1491,167Z" fill="#a97a54" stroke="#a97a54"/><path d="M-42,124L-66,737L-41,229Z" fill="#ffb58d" stroke="#ffb58d"/><path d="M-42,124L-41,229L73,119Z" fill="#ffe3b6" stroke="#ffe3b6"/><path d="M73,119L-41,229L86,224Z" fill="#ffd7a4" stroke="#ffd7a4"/><path d="M73,119L86,224L183,116Z" fill="#ffd9a4" stroke="#ffd9a4"/><path d="M183,116L86,224L167,262Z" fill="#fecc8f" stroke="#fecc8f"/><path d="M183,116L167,262L217,265Z" fill="#fec583" stroke="#fec583"/><path d="M183,116L217,265L230,119Z" fill="#fecd90" stroke="#fecd90"/><path d="M230,119L217,265L308,178Z" fill="#fec582" stroke="#fec582"/><path d="M308,178L217,265L365,261Z" fill="#feb76b" stroke="#feb76b"/><path d="M308,178L365,261L416,124Z" fill="#febb72" stroke="#febb72"/><path d="M416,124L365,261L482,206Z" fill="#feb467" stroke="#feb467"/><path d="M416,124L482,206L569,138Z" fill="#feb76c" stroke="#feb76c"/><path d="M569,138L482,206L515,257Z" fill="#feaa58" stroke="#feaa58"/><path d="M569,138L515,257L672,295Z" fill="#fc9d48" stroke="#fc9d48"/><path d="M569,138L672,295L706,152Z" fill="#fa9e4e" stroke="#fa9e4e"/><path d="M569,138L706,152L694,137Z" fill="#f9aa5f" stroke="#f9aa5f"/><path d="M706,152L672,295L722,285Z" fill="#f78e39" stroke="#f78e39"/><path d="M706,152L722,285L823,167Z" fill="#f59243" stroke="#f59243"/><path d="M823,167L722,285L863,211Z" fill="#f38838" stroke="#f38838"/><path d="M986,159L863,211L945,282Z" fill="#e48236" stroke="#e48236"/><path d="M986,159L945,282L1008,176Z" fill="#df813a" stroke="#df813a"/><path d="M986,159L1008,176L1137,106Z" fill="#d78b4c" stroke="#d78b4c"/><path d="M1008,176L945,282L1019,249Z" fill="#dd7a2f" stroke="#dd7a2f"/><path d="M1008,176L1019,249L1111,244Z" fill="#d77a32" stroke="#d77a32"/><path d="M1008,176L1111,244L1137,106Z" fill="#d28242" stroke="#d28242"/><path d="M1137,106L1111,244L1231,136Z" fill="#c98145" stroke="#c98145"/><path d="M1231,136L1111,244L1229,249Z" fill="#c67435" stroke="#c67435"/><path d="M1231,136L1229,249L1379,259Z" fill="#bb6e33" stroke="#bb6e33"/><path d="M1231,136L1379,259L1385,126Z" fill="#b57441" stroke="#b57441"/><path d="M1385,126L1379,259L1491,167Z" fill="#ab6d3d" stroke="#ab6d3d"/><path d="M1491,167L1379,259L1431,274Z" fill="#a9612d" stroke="#a9612d"/><path d="M1491,167L1431,274L1422,338Z" fill="#a75a24" stroke="#a75a24"/><path d="M1491,167L1422,338L1429,478Z" fill="#a7491a" stroke="#a7491a"/><path d="M1491,167L1429,478L1441,534Z" fill="#a63812" stroke="#a63812"/><path d="M1491,167L1441,534L1433,624Z" fill="#9b3112" stroke="#9b3112"/><path d="M1491,167L1433,624L1423,729Z" fill="#8d2812" stroke="#8d2812"/><path d="M-41,229L-66,737L-29,481Z" fill="#eba088" stroke="#eba088"/><path d="M-41,229L-29,481L-10,330Z" fill="#ffb78b" stroke="#ffb78b"/><path d="M-41,229L-10,330L80,312Z" fill="#ffc28d" stroke="#ffc28d"/><path d="M-41,229L80,312L86,224Z" fill="#ffc88e" stroke="#ffc88e"/><path d="M86,224L80,312L152,307Z" fill="#ffbc7e" stroke="#ffbc7e"/><path d="M86,224L152,307L167,262Z" fill="#febe7c" stroke="#febe7c"/><path d="M167,262L152,307L217,265Z" fill="#feb773" stroke="#feb773"/><path d="M217,265L152,307L245,390Z" fill="#fea968" stroke="#fea968"/><path d="M217,265L245,390L341,311Z" fill="#fea35e" stroke="#fea35e"/><path d="M217,265L341,311L365,261Z" fill="#feab5f" stroke="#feab5f"/><path d="M365,261L341,311L481,327Z" fill="#fe9e50" stroke="#fe9e50"/><path d="M365,261L481,327L482,206Z" fill="#fea34e" stroke="#fea34e"/><path d="M482,206L481,327L515,257Z" fill="#fe9e48" stroke="#fe9e48"/><path d="M515,257L481,327L594,370Z" fill="#fe8d3b" stroke="#fe8d3b"/><path d="M515,257L594,370L660,310Z" fill="#fc8836" stroke="#fc8836"/><path d="M515,257L660,310L672,295Z" fill="#fb8c38" stroke="#fb8c38"/><path d="M672,295L660,310L749,352Z" fill="#f87c2c" stroke="#f87c2c"/><path d="M672,295L749,352L722,285Z" fill="#f77c2c" stroke="#f77c2c"/><path d="M722,285L749,352L863,211Z" fill="#f47d2a" stroke="#f47d2a"/><path d="M863,211L749,352L849,383Z" fill="#f17023" stroke="#f17023"/><path d="M863,211L849,383L945,282Z" fill="#ea7224" stroke="#ea7224"/><path d="M945,282L849,383L945,379Z" fill="#e6621c" stroke="#e6621c"/><path d="M945,282L945,379L1068,371Z" fill="#de5f1b" stroke="#de5f1b"/><path d="M945,282L1068,371L1019,249Z" fill="#db6921" stroke="#db6921"/><path d="M1019,249L1068,371L1111,244Z" fill="#d46921" stroke="#d46921"/><path d="M1111,244L1068,371L1166,365Z" fill="#cf5c1c" stroke="#cf5c1c"/><path d="M1111,244L1166,365L1229,249Z" fill="#c86420" stroke="#c86420"/><path d="M1229,249L1166,365L1261,319Z" fill="#c25a1d" stroke="#c25a1d"/><path d="M1229,249L1261,319L1379,259Z" fill="#ba5f22" stroke="#ba5f22"/><path d="M1379,259L1261,319L1352,355Z" fill="#b5541d" stroke="#b5541d"/><path d="M1379,259L1352,355L1422,338Z" fill="#af4f1c" stroke="#af4f1c"/><path d="M1379,259L1422,338L1431,274Z" fill="#ab5520" stroke="#ab5520"/><path d="M-10,330L-29,481L12,460Z" fill="#f8a682" stroke="#f8a682"/><path d="M-10,330L12,460L80,312Z" fill="#ffad7f" stroke="#ffad7f"/><path d="M80,312L12,460L194,416Z" fill="#fea071" stroke="#fea071"/><path d="M80,312L194,416L152,307Z" fill="#fea870" stroke="#fea870"/><path d="M152,307L194,416L245,390Z" fill="#fe9d63" stroke="#fe9d63"/><path d="M245,390L194,416L211,437Z" fill="#f9935d" stroke="#f9935d"/><path d="M245,390L211,437L313,435Z" fill="#f88e56" stroke="#f88e56"/><path d="M245,390L313,435L341,311Z" fill="#fe9252" stroke="#fe9252"/><path d="M341,311L313,435L457,406Z" fill="#fe8a48" stroke="#fe8a48"/><path d="M341,311L457,406L481,327Z" fill="#fe8f45" stroke="#fe8f45"/><path d="M481,327L457,406L560,421Z" fill="#fe7e36" stroke="#fe7e36"/><path d="M481,327L560,421L594,370Z" fill="#fe7d32" stroke="#fe7d32"/><path d="M594,370L560,421L671,442Z" fill="#f76f2a" stroke="#f76f2a"/><path d="M594,370L671,442L660,310Z" fill="#fa7329" stroke="#fa7329"/><path d="M660,310L671,442L749,352Z" fill="#f86f25" stroke="#f86f25"/><path d="M749,352L671,442L805,447Z" fill="#f1611e" stroke="#f1611e"/><path d="M749,352L805,447L849,383Z" fill="#f35e19" stroke="#f35e19"/><path d="M849,383L805,447L932,510Z" fill="#e05217" stroke="#e05217"/><path d="M849,383L932,510L945,379Z" fill="#df5316" stroke="#df5316"/><path d="M945,379L932,510L979,462Z" fill="#d54d16" stroke="#d54d16"/><path d="M945,379L979,462L1060,432Z" fill="#d54e15" stroke="#d54e15"/><path d="M945,379L1060,432L1068,371Z" fill="#d95014" stroke="#d95014"/><path d="M1068,371L1060,432L1181,419Z" fill="#cc4a13" stroke="#cc4a13"/><path d="M1068,371L1181,419L1166,365Z" fill="#cc4c13" stroke="#cc4c13"/><path d="M1166,365L1181,419L1234,412Z" fill="#c34612" stroke="#c34612"/><path d="M1166,365L1234,412L1261,319Z" fill="#c24c15" stroke="#c24c15"/><path d="M1261,319L1234,412L1352,355Z" fill="#bb4a16" stroke="#bb4a16"/><path d="M1352,355L1234,412L1369,462Z" fill="#b23e12" stroke="#b23e12"/><path d="M1352,355L1369,462L1422,338Z" fill="#af3e13" stroke="#af3e13"/><path d="M1422,338L1369,462L1429,478Z" fill="#a43612" stroke="#a43612"/><path d="M-29,481L-66,737L-23,542Z" fill="#d49187" stroke="#d49187"/><path d="M-29,481L-23,542L29,508Z" fill="#e59982" stroke="#e59982"/><path d="M-29,481L29,508L12,460Z" fill="#eb9c80" stroke="#eb9c80"/><path d="M12,460L29,508L194,416Z" fill="#ef9874" stroke="#ef9874"/><path d="M194,416L29,508L174,530Z" fill="#ea906b" stroke="#ea906b"/><path d="M194,416L174,530L211,437Z" fill="#ef8e61" stroke="#ef8e61"/><path d="M211,437L174,530L244,582Z" fill="#e3855e" stroke="#e3855e"/><path d="M211,437L244,582L342,519Z" fill="#e48155" stroke="#e48155"/><path d="M211,437L342,519L313,435Z" fill="#ee8652" stroke="#ee8652"/><path d="M313,435L342,519L457,406Z" fill="#f18047" stroke="#f18047"/><path d="M457,406L342,519L493,578Z" fill="#e6743e" stroke="#e6743e"/><path d="M457,406L493,578L557,522Z" fill="#e66d35" stroke="#e66d35"/><path d="M457,406L557,522L560,421Z" fill="#f17232" stroke="#f17232"/><path d="M560,421L557,522L671,442Z" fill="#ec692b" stroke="#ec692b"/><path d="M671,442L557,522L672,551Z" fill="#e15f28" stroke="#e15f28"/><path d="M671,442L672,551L748,530Z" fill="#de5822" stroke="#de5822"/><path d="M671,442L748,530L781,494Z" fill="#e0571f" stroke="#e0571f"/><path d="M671,442L781,494L805,447Z" fill="#e6591d" stroke="#e6591d"/><path d="M781,494L748,530L809,517Z" fill="#d94f1b" stroke="#d94f1b"/><path d="M781,494L809,517L805,447Z" fill="#de5119" stroke="#de5119"/><path d="M805,447L809,517L932,510Z" fill="#d84c18" stroke="#d84c18"/><path d="M979,462L932,510L1025,580Z" fill="#c34215" stroke="#c34215"/><path d="M979,462L1025,580L1112,531Z" fill="#ba3d14" stroke="#ba3d14"/><path d="M979,462L1112,531L1060,432Z" fill="#c44314" stroke="#c44314"/><path d="M1060,432L1112,531L1181,419Z" fill="#bf4213" stroke="#bf4213"/><path d="M1181,419L1112,531L1239,587Z" fill="#ad3712" stroke="#ad3712"/><path d="M1181,419L1239,587L1234,412Z" fill="#b03a12" stroke="#b03a12"/><path d="M1234,412L1239,587L1307,570Z" fill="#a03012" stroke="#a03012"/><path d="M1234,412L1307,570L1369,462Z" fill="#a43412" stroke="#a43412"/><path d="M1369,462L1307,570L1441,534Z" fill="#932a12" stroke="#932a12"/><path d="M1369,462L1441,534L1429,478Z" fill="#952c12" stroke="#952c12"/><path d="M-23,542L-66,737L-6,679Z" fill="#c58786" stroke="#c58786"/><path d="M-23,542L-6,679L10,639Z" fill="#cd8982" stroke="#cd8982"/><path d="M-23,542L10,639L29,508Z" fill="#d99080" stroke="#d99080"/><path d="M29,508L10,639L173,624Z" fill="#d38775" stroke="#d38775"/><path d="M29,508L173,624L174,530Z" fill="#db876c" stroke="#db876c"/><path d="M174,530L173,624L244,582Z" fill="#d57e60" stroke="#d57e60"/><path d="M244,582L173,624L267,637Z" fill="#cd755b" stroke="#cd755b"/><path d="M244,582L267,637L367,625Z" fill="#cd7051" stroke="#cd7051"/><path d="M244,582L367,625L342,519Z" fill="#d6734e" stroke="#d6734e"/><path d="M342,519L367,625L493,578Z" fill="#d66c43" stroke="#d66c43"/><path d="M493,578L367,625L486,622Z" fill="#cf633c" stroke="#cf633c"/><path d="M493,578L486,622L572,646Z" fill="#cd5b33" stroke="#cd5b33"/><path d="M493,578L572,646L557,522Z" fill="#d45e30" stroke="#d45e30"/><path d="M557,522L572,646L672,551Z" fill="#d4592a" stroke="#d4592a"/><path d="M672,551L572,646L667,666Z" fill="#c84f27" stroke="#c84f27"/><path d="M672,551L667,666L705,668Z" fill="#c44923" stroke="#c44923"/><path d="M672,551L705,668L748,530Z" fill="#cd4c21" stroke="#cd4c21"/><path d="M748,530L705,668L867,640Z" fill="#c4411b" stroke="#c4411b"/><path d="M748,530L867,640L809,517Z" fill="#cd4518" stroke="#cd4518"/><path d="M809,517L867,640L932,510Z" fill="#c84217" stroke="#c84217"/><path d="M932,510L867,640L1025,580Z" fill="#bb3b16" stroke="#bb3b16"/><path d="M1025,580L867,640L939,685Z" fill="#ad3316" stroke="#ad3316"/><path d="M1025,580L939,685L1093,657Z" fill="#a32e14" stroke="#a32e14"/><path d="M1025,580L1093,657L1112,531Z" fill="#a83213" stroke="#a83213"/><path d="M1112,531L1093,657L1161,677Z" fill="#9b2a12" stroke="#9b2a12"/><path d="M1112,531L1161,677L1224,622Z" fill="#982a12" stroke="#982a12"/><path d="M1112,531L1224,622L1239,587Z" fill="#9c2c12" stroke="#9c2c12"/><path d="M1239,587L1224,622L1311,625Z" fill="#8d2412" stroke="#8d2412"/><path d="M1239,587L1311,625L1307,570Z" fill="#8e2512" stroke="#8e2512"/><path d="M1307,570L1311,625L1433,624Z" fill="#842012" stroke="#842012"/><path d="M1307,570L1433,624L1441,534Z" fill="#852112" stroke="#852112"/><path d="M-6,679L-66,737L38,736Z" fill="#b77c83" stroke="#b77c83"/><path d="M-6,679L38,736L10,639Z" fill="#be7e7e" stroke="#be7e7e"/><path d="M10,639L38,736L173,624Z" fill="#c27c75" stroke="#c27c75"/><path d="M173,624L38,736L126,790Z" fill="#b7716e" stroke="#b7716e"/><path d="M173,624L126,790L242,722Z" fill="#b86c63" stroke="#b86c63"/><path d="M173,624L242,722L267,637Z" fill="#c36f5b" stroke="#c36f5b"/><path d="M267,637L242,722L367,625Z" fill="#c36951" stroke="#c36951"/><path d="M367,625L242,722L376,772Z" fill="#b95f4c" stroke="#b95f4c"/><path d="M367,625L376,772L413,723Z" fill="#b95a45" stroke="#b95a45"/><path d="M367,625L413,723L486,622Z" fill="#c45e40" stroke="#c45e40"/><path d="M486,622L413,723L539,729Z" fill="#bc5438" stroke="#bc5438"/><path d="M486,622L539,729L572,646Z" fill="#c25331" stroke="#c25331"/><path d="M572,646L539,729L623,726Z" fill="#b9492c" stroke="#b9492c"/><path d="M572,646L623,726L667,666Z" fill="#bc4829" stroke="#bc4829"/><path d="M667,666L623,726L705,668Z" fill="#b84225" stroke="#b84225"/><path d="M705,668L623,726L742,750Z" fill="#b13c23" stroke="#b13c23"/><path d="M705,668L742,750L839,723Z" fill="#ae341c" stroke="#ae341c"/><path d="M705,668L839,723L867,640Z" fill="#b43519" stroke="#b43519"/><path d="M867,640L839,723L939,685Z" fill="#aa3017" stroke="#aa3017"/><path d="M939,685L839,723L956,783Z" fill="#9c2716" stroke="#9c2716"/><path d="M939,685L956,783L1093,740Z" fill="#912215" stroke="#912215"/><path d="M939,685L1093,740L1093,657Z" fill="#952514" stroke="#952514"/><path d="M1093,657L1093,740L1108,724Z" fill="#8b2013" stroke="#8b2013"/><path d="M1093,657L1108,724L1161,677Z" fill="#8d2112" stroke="#8d2112"/><path d="M1161,677L1108,724L1240,726Z" fill="#831c12" stroke="#831c12"/><path d="M1161,677L1240,726L1224,622Z" fill="#851e12" stroke="#851e12"/><path d="M1224,622L1240,726L1311,625Z" fill="#831d12" stroke="#831d12"/><path d="M1311,625L1240,726L1342,762Z" fill="#741512" stroke="#741512"/><path d="M1311,625L1342,762L1423,729Z" fill="#6d1112" stroke="#6d1112"/><path d="M1311,625L1423,729L1433,624Z" fill="#731612" stroke="#731612"/><path d="M-66,737L126,790L38,736Z" fill="#af747b" stroke="#af747b"/><path d="M126,790L956,783L376,772Z" fill="#a94c37" stroke="#a94c37"/><path d="M126,790L376,772L242,722Z" fill="#ad6158" stroke="#ad6158"/><path d="M376,772L956,783L742,750Z" fill="#a53723" stroke="#a53723"/><path d="M376,772L742,750L539,729Z" fill="#af452f" stroke="#af452f"/><path d="M376,772L539,729L413,723Z" fill="#b1503d" stroke="#b1503d"/><path d="M539,729L742,750L623,726Z" fill="#af3e27" stroke="#af3e27"/><path d="M742,750L956,783L839,723Z" fill="#9f2918" stroke="#9f2918"/><path d="M956,783L1342,762L1093,740Z" fill="#7c1812" stroke="#7c1812"/><path d="M1093,740L1342,762L1240,726Z" fill="#741312" stroke="#741312"/><path d="M1093,740L1240,726L1108,724Z" fill="#801a12" stroke="#801a12"/></g></svg>