<svg width="1349" height="651" xmlns="http://www.w3.org/2000/svg"><g><path d="M-72,-79L-64,469L-64,280Z" fill="#ffd6de" stroke="#ffd6de"/><path d="M-72,-79L-64,280L-41,36Z" fill="#fff1ec" stroke="#fff1ec"/><path d="M-72,-79L-41,36L80,-22Z" fill="#fff6f1" stroke="#fff6f1"/><path d="M-72,-79L80,-22L161,-90Z" fill="#fef1ed" stroke="#fef1ed"/><path d="M80,-22L-41,36L7,57Z" fill="#fff1ed" stroke="#fff1ed"/><path d="M80,-22L7,57L110,27Z" fill="#feedeb" stroke="#feedeb"/><path d="M80,-22L110,27L161,-90Z" fill="#feecea" stroke="#feecea"/><path d="M161,-90L110,27L253,-71Z" fill="#fee7e6" stroke="#fee7e6"/><path d="M161,-90L253,-71L412,-92Z" fill="#fedfe0" stroke="#fedfe0"/><path d="M253,-71L110,27L276,60Z" fill="#fee3e3" stroke="#fee3e3"/><path d="M253,-71L276,60L339,-17Z" fill="#fddedf" stroke="#fddedf"/><path d="M253,-71L339,-17L412,-92Z" fill="#fddadc" stroke="#fddadc"/><path d="M339,-17L276,60L389,62Z" fill="#fdd5d9" stroke="#fdd5d9"/><path d="M339,-17L389,62L407,39Z" fill="#fdd2d8" stroke="#fdd2d8"/><path d="M339,-17L407,39L412,-92Z" fill="#fdd4db" stroke="#fdd4db"/><path d="M412,-92L407,39L591,-44Z" fill="#fccbd8" stroke="#fccbd8"/><path d="M412,-92L591,-44L844,-68Z" fill="#fcbad2" stroke="#fcbad2"/><path d="M412,-92L844,-68L1136,-81Z" fill="#eea1ca" stroke="#eea1ca"/><path d="M412,-92L1136,-81L1368,-87Z" fill="#db86c1" stroke="#db86c1"/><path d="M591,-44L407,39L563,85Z" fill="#fcc2d3" stroke="#fcc2d3"/><path d="M591,-44L563,85L624,52Z" fill="#fcb9d0" stroke="#fcb9d0"/><path d="M591,-44L624,52L652,-39Z" fill="#fcbad2" stroke="#fcbad2"/><path d="M591,-44L652,-39L844,-68Z" fill="#f9b1cf" stroke="#f9b1cf"/><path d="M652,-39L624,52L743,-24Z" fill="#fbb4d0" stroke="#fbb4d0"/><path d="M652,-39L743,-24L844,-68Z" fill="#f3a9cd" stroke="#f3a9cd"/><path d="M743,-24L624,52L793,14Z" fill="#f6abcc" stroke="#f6abcc"/><path d="M743,-24L793,14L844,-68Z" fill="#eea2ca" stroke="#eea2ca"/><path d="M844,-68L793,14L913,85Z" fill="#e897c6" stroke="#e897c6"/><path d="M844,-68L913,85L947,-40Z" fill="#e391c4" stroke="#e391c4"/><path d="M844,-68L947,-40L1014,-71Z" fill="#df8cc3" stroke="#df8cc3"/><path d="M844,-68L1014,-71L1136,-81Z" fill="#d882bf" stroke="#d882bf"/><path d="M947,-40L913,85L1027,88Z" fill="#dc82bd" stroke="#dc82bd"/><path d="M947,-40L1027,88L1014,-71Z" fill="#d883c0" stroke="#d883c0"/><path d="M1014,-71L1027,88L1136,-81Z" fill="#d280bc" stroke="#d280bc"/><path d="M1136,-81L1027,88L1075,107Z" fill="#cf7bb7" stroke="#cf7bb7"/><path d="M1136,-81L1075,107L1186,73Z" fill="#ca7cb5" stroke="#ca7cb5"/><path d="M1136,-81L1186,73L1233,15Z" fill="#c47fb6" stroke="#c47fb6"/><path d="M1136,-81L1233,15L1234,-67Z" fill="#c280b5" stroke="#c280b5"/><path d="M1136,-81L1234,-67L1368,-87Z" fill="#bd80b3" stroke="#bd80b3"/><path d="M1234,-67L1233,15L1368,-87Z" fill="#ba80b1" stroke="#ba80b1"/><path d="M1368,-87L1233,15L1339,78Z" fill="#b680af" stroke="#b680af"/><path d="M1368,-87L1339,78L1418,-71Z" fill="#af80ac" stroke="#af80ac"/><path d="M1418,-71L1339,78L1488,94Z" fill="#ab7ca6" stroke="#ab7ca6"/><path d="M-41,36L-64,280L-23,165Z" fill="#ffe5e3" stroke="#ffe5e3"/><path d="M-41,36L-23,165L7,57Z" fill="#ffece9" stroke="#ffece9"/><path d="M7,57L-23,165L83,171Z" fill="#ffe3e2" stroke="#ffe3e2"/><path d="M7,57L83,171L112,115Z" fill="#fee2e1" stroke="#fee2e1"/><path d="M7,57L112,115L110,27Z" fill="#fee7e5" stroke="#fee7e5"/><path d="M110,27L112,115L276,60Z" fill="#fedfe0" stroke="#fedfe0"/><path d="M276,60L112,115L270,137Z" fill="#fed6d8" stroke="#fed6d8"/><path d="M276,60L270,137L326,131Z" fill="#fdd0d4" stroke="#fdd0d4"/><path d="M276,60L326,131L389,62Z" fill="#fdd0d4" stroke="#fdd0d4"/><path d="M389,62L326,131L465,133Z" fill="#fdc6cf" stroke="#fdc6cf"/><path d="M389,62L465,133L407,39Z" fill="#fdc7d1" stroke="#fdc7d1"/><path d="M407,39L465,133L563,85Z" fill="#fcbfce" stroke="#fcbfce"/><path d="M563,85L465,133L513,144Z" fill="#fcb7c9" stroke="#fcb7c9"/><path d="M563,85L513,144L607,146Z" fill="#fcb1c7" stroke="#fcb1c7"/><path d="M563,85L607,146L624,52Z" fill="#fcb1c9" stroke="#fcb1c9"/><path d="M624,52L607,146L718,158Z" fill="#fba8c5" stroke="#fba8c5"/><path d="M624,52L718,158L793,14Z" fill="#f7a5c6" stroke="#f7a5c6"/><path d="M793,14L718,158L829,81Z" fill="#f099c2" stroke="#f099c2"/><path d="M793,14L829,81L913,85Z" fill="#e992c1" stroke="#e992c1"/><path d="M829,81L718,158L845,183Z" fill="#ee8fbb" stroke="#ee8fbb"/><path d="M829,81L845,183L927,122Z" fill="#e686b9" stroke="#e686b9"/><path d="M829,81L927,122L913,85Z" fill="#e487bb" stroke="#e487bb"/><path d="M913,85L927,122L1027,88Z" fill="#dd7db7" stroke="#dd7db7"/><path d="M1027,88L927,122L1025,212Z" fill="#d972b1" stroke="#d972b1"/><path d="M1027,88L1025,212L1075,107Z" fill="#d36faf" stroke="#d36faf"/><path d="M1186,73L1075,107L1115,140Z" fill="#ca73ae" stroke="#ca73ae"/><path d="M1186,73L1115,140L1243,162Z" fill="#c470a9" stroke="#c470a9"/><path d="M1186,73L1243,162L1325,121Z" fill="#bd71a6" stroke="#bd71a6"/><path d="M1186,73L1325,121L1233,15Z" fill="#bd77ab" stroke="#bd77ab"/><path d="M1233,15L1325,121L1339,78Z" fill="#b877a8" stroke="#b877a8"/><path d="M1339,78L1325,121L1488,94Z" fill="#ae74a1" stroke="#ae74a1"/><path d="M1488,94L1325,121L1480,188Z" fill="#a96f9b" stroke="#a96f9b"/><path d="M1488,94L1480,188L1489,728Z" fill="#a23b85" stroke="#a23b85"/><path d="M-23,165L-64,280L34,273Z" fill="#ffcdda" stroke="#ffcdda"/><path d="M-23,165L34,273L83,171Z" fill="#ffd3da" stroke="#ffd3da"/><path d="M83,171L34,273L157,237Z" fill="#fec8d5" stroke="#fec8d5"/><path d="M83,171L157,237L112,115Z" fill="#fed5d8" stroke="#fed5d8"/><path d="M112,115L157,237L270,137Z" fill="#fed3d5" stroke="#fed3d5"/><path d="M270,137L157,237L293,288Z" fill="#febecc" stroke="#febecc"/><path d="M270,137L293,288L369,218Z" fill="#fdb9c8" stroke="#fdb9c8"/><path d="M270,137L369,218L326,131Z" fill="#fdc7cc" stroke="#fdc7cc"/><path d="M326,131L369,218L465,133Z" fill="#fdc1c9" stroke="#fdc1c9"/><path d="M465,133L369,218L429,217Z" fill="#fdb5c6" stroke="#fdb5c6"/><path d="M465,133L429,217L513,144Z" fill="#fcb6c7" stroke="#fcb6c7"/><path d="M513,144L429,217L552,205Z" fill="#fcadc3" stroke="#fcadc3"/><path d="M513,144L552,205L607,146Z" fill="#fcacc3" stroke="#fcacc3"/><path d="M607,146L552,205L689,262Z" fill="#fc9bbe" stroke="#fc9bbe"/><path d="M607,146L689,262L718,158Z" fill="#fb99bd" stroke="#fb99bd"/><path d="M718,158L689,262L782,264Z" fill="#f585b6" stroke="#f585b6"/><path d="M718,158L782,264L845,183Z" fill="#f084b6" stroke="#f084b6"/><path d="M845,183L782,264L841,261Z" fill="#eb75b1" stroke="#eb75b1"/><path d="M845,183L841,261L976,247Z" fill="#e46cae" stroke="#e46cae"/><path d="M845,183L976,247L927,122Z" fill="#e175b1" stroke="#e175b1"/><path d="M927,122L976,247L1025,212Z" fill="#db69ad" stroke="#db69ad"/><path d="M1075,107L1025,212L1115,140Z" fill="#d06dac" stroke="#d06dac"/><path d="M1115,140L1025,212L1188,223Z" fill="#cc64a6" stroke="#cc64a6"/><path d="M1115,140L1188,223L1243,162Z" fill="#c468a4" stroke="#c468a4"/><path d="M1243,162L1188,223L1247,256Z" fill="#c05e9e" stroke="#c05e9e"/><path d="M1243,162L1247,256L1332,260Z" fill="#ba5a9b" stroke="#ba5a9b"/><path d="M1243,162L1332,260L1325,121Z" fill="#b8679d" stroke="#b8679d"/><path d="M1325,121L1332,260L1440,246Z" fill="#b05f97" stroke="#b05f97"/><path d="M1325,121L1440,246L1480,188Z" fill="#ab6697" stroke="#ab6697"/><path d="M1480,188L1440,246L1428,338Z" fill="#a7518f" stroke="#a7518f"/><path d="M1480,188L1428,338L1448,576Z" fill="#a13383" stroke="#a13383"/><path d="M1480,188L1448,576L1489,728Z" fill="#8b0f71" stroke="#8b0f71"/><path d="M-64,280L-64,469L-11,335Z" fill="#f9aed0" stroke="#f9aed0"/><path d="M-64,280L-11,335L34,273Z" fill="#ffbdd5" stroke="#ffbdd5"/><path d="M34,273L-11,335L56,385Z" fill="#feb0cf" stroke="#feb0cf"/><path d="M34,273L56,385L122,380Z" fill="#fba8ca" stroke="#fba8ca"/><path d="M34,273L122,380L157,237Z" fill="#feb3cd" stroke="#feb3cd"/><path d="M157,237L122,380L278,364Z" fill="#fea4c6" stroke="#fea4c6"/><path d="M157,237L278,364L293,288Z" fill="#fea8c5" stroke="#fea8c5"/><path d="M293,288L278,364L331,354Z" fill="#fc99bd" stroke="#fc99bd"/><path d="M293,288L331,354L369,218Z" fill="#fda4c1" stroke="#fda4c1"/><path d="M369,218L331,354L429,217Z" fill="#fda5c1" stroke="#fda5c1"/><path d="M429,217L331,354L481,342Z" fill="#fd96bc" stroke="#fd96bc"/><path d="M429,217L481,342L530,305Z" fill="#fc93bb" stroke="#fc93bb"/><path d="M429,217L530,305L552,205Z" fill="#fc9dbe" stroke="#fc9dbe"/><path d="M552,205L530,305L689,262Z" fill="#fc8fba" stroke="#fc8fba"/><path d="M689,262L530,305L605,354Z" fill="#fc7fb5" stroke="#fc7fb5"/><path d="M689,262L605,354L707,378Z" fill="#fa72b0" stroke="#fa72b0"/><path d="M689,262L707,378L782,264Z" fill="#f671b0" stroke="#f671b0"/><path d="M782,264L707,378L808,359Z" fill="#f062ab" stroke="#f062ab"/><path d="M782,264L808,359L841,261Z" fill="#ed66ac" stroke="#ed66ac"/><path d="M841,261L808,359L918,364Z" fill="#e756a7" stroke="#e756a7"/><path d="M841,261L918,364L976,247Z" fill="#e258a7" stroke="#e258a7"/><path d="M976,247L918,364L1023,305Z" fill="#db4aa3" stroke="#db4aa3"/><path d="M976,247L1023,305L1025,212Z" fill="#d753a6" stroke="#d753a6"/><path d="M1025,212L1023,305L1160,328Z" fill="#d14ba0" stroke="#d14ba0"/><path d="M1025,212L1160,328L1188,223Z" fill="#cb52a0" stroke="#cb52a0"/><path d="M1188,223L1160,328L1247,256Z" fill="#c34e9b" stroke="#c34e9b"/><path d="M1247,256L1160,328L1294,340Z" fill="#bf4395" stroke="#bf4395"/><path d="M1247,256L1294,340L1332,260Z" fill="#b94994" stroke="#b94994"/><path d="M1332,260L1294,340L1320,359Z" fill="#b64090" stroke="#b64090"/><path d="M1332,260L1320,359L1428,338Z" fill="#b1408e" stroke="#b1408e"/><path d="M1332,260L1428,338L1440,246Z" fill="#ad4b8f" stroke="#ad4b8f"/><path d="M-11,335L-64,469L56,385Z" fill="#f4a1c9" stroke="#f4a1c9"/><path d="M56,385L-64,469L84,493Z" fill="#ed90c0" stroke="#ed90c0"/><path d="M56,385L84,493L122,380Z" fill="#f093c0" stroke="#f093c0"/><path d="M122,380L84,493L175,419Z" fill="#ef8cbc" stroke="#ef8cbc"/><path d="M122,380L175,419L278,364Z" fill="#f593be" stroke="#f593be"/><path d="M278,364L175,419L211,490Z" fill="#ef87b7" stroke="#ef87b7"/><path d="M278,364L211,490L369,464Z" fill="#ec7db1" stroke="#ec7db1"/><path d="M278,364L369,464L331,354Z" fill="#f387b4" stroke="#f387b4"/><path d="M331,354L369,464L464,420Z" fill="#f07bb0" stroke="#f07bb0"/><path d="M331,354L464,420L481,342Z" fill="#f682b4" stroke="#f682b4"/><path d="M481,342L464,420L563,457Z" fill="#f070ac" stroke="#f070ac"/><path d="M481,342L563,457L605,354Z" fill="#f370ae" stroke="#f370ae"/><path d="M481,342L605,354L530,305Z" fill="#fb80b5" stroke="#fb80b5"/><path d="M605,354L563,457L684,414Z" fill="#f062a8" stroke="#f062a8"/><path d="M605,354L684,414L707,378Z" fill="#f364aa" stroke="#f364aa"/><path d="M707,378L684,414L763,457Z" fill="#e953a3" stroke="#e953a3"/><path d="M707,378L763,457L808,359Z" fill="#e851a3" stroke="#e851a3"/><path d="M808,359L763,457L814,441Z" fill="#e0469e" stroke="#e0469e"/><path d="M808,359L814,441L918,364Z" fill="#e047a0" stroke="#e047a0"/><path d="M918,364L814,441L990,463Z" fill="#d43498" stroke="#d43498"/><path d="M918,364L990,463L1060,433Z" fill="#cb2894" stroke="#cb2894"/><path d="M918,364L1060,433L1023,305Z" fill="#d2359a" stroke="#d2359a"/><path d="M1023,305L1060,433L1160,328Z" fill="#cb3698" stroke="#cb3698"/><path d="M1160,328L1060,433L1110,465Z" fill="#c02890" stroke="#c02890"/><path d="M1160,328L1110,465L1270,495Z" fill="#b52289" stroke="#b52289"/><path d="M1160,328L1270,495L1294,340Z" fill="#b52d8b" stroke="#b52d8b"/><path d="M1294,340L1270,495L1320,359Z" fill="#ae2a87" stroke="#ae2a87"/><path d="M1320,359L1270,495L1380,452Z" fill="#a52081" stroke="#a52081"/><path d="M1320,359L1380,452L1428,338Z" fill="#a72f85" stroke="#a72f85"/><path d="M1428,338L1380,452L1411,490Z" fill="#9d237e" stroke="#9d237e"/><path d="M1428,338L1411,490L1448,576Z" fill="#951777" stroke="#951777"/><path d="M-64,469L-42,758L-51,554Z" fill="#d77ab2" stroke="#d77ab2"/><path d="M-64,469L-51,554L78,516Z" fill="#e381ba" stroke="#e381ba"/><path d="M-64,469L78,516L84,493Z" fill="#e684ba" stroke="#e684ba"/><path d="M84,493L78,516L118,541Z" fill="#e278b3" stroke="#e278b3"/><path d="M84,493L118,541L211,490Z" fill="#e377b1" stroke="#e377b1"/><path d="M84,493L211,490L175,419Z" fill="#e980b5" stroke="#e980b5"/><path d="M211,490L118,541L237,572Z" fill="#df6bab" stroke="#df6bab"/><path d="M211,490L237,572L342,514Z" fill="#e068a7" stroke="#e068a7"/><path d="M211,490L342,514L369,464Z" fill="#e56eaa" stroke="#e56eaa"/><path d="M369,464L342,514L489,570Z" fill="#e15da2" stroke="#e15da2"/><path d="M369,464L489,570L464,420Z" fill="#e561a5" stroke="#e561a5"/><path d="M464,420L489,570L535,541Z" fill="#e1549f" stroke="#e1549f"/><path d="M464,420L535,541L563,457Z" fill="#e75ca3" stroke="#e75ca3"/><path d="M563,457L535,541L674,523Z" fill="#e14a9c" stroke="#e14a9c"/><path d="M563,457L674,523L684,414Z" fill="#e750a0" stroke="#e750a0"/><path d="M684,414L674,523L763,457Z" fill="#e3479d" stroke="#e3479d"/><path d="M763,457L674,523L730,593Z" fill="#d93495" stroke="#d93495"/><path d="M763,457L730,593L858,591Z" fill="#cf258f" stroke="#cf258f"/><path d="M763,457L858,591L814,441Z" fill="#d32f94" stroke="#d32f94"/><path d="M814,441L858,591L911,578Z" fill="#c81c8c" stroke="#c81c8c"/><path d="M814,441L911,578L990,463Z" fill="#c9218f" stroke="#c9218f"/><path d="M990,463L911,578L1038,563Z" fill="#bb0b86" stroke="#bb0b86"/><path d="M990,463L1038,563L1060,433Z" fill="#bd1289" stroke="#bd1289"/><path d="M1060,433L1038,563L1110,465Z" fill="#b91287" stroke="#b91287"/><path d="M1110,465L1038,563L1142,505Z" fill="#b20c83" stroke="#b20c83"/><path d="M1110,465L1142,505L1270,495Z" fill="#ad1282" stroke="#ad1282"/><path d="M1270,495L1142,505L1279,585Z" fill="#a1077a" stroke="#a1077a"/><path d="M1270,495L1279,585L1363,573Z" fill="#960173" stroke="#960173"/><path d="M1270,495L1363,573L1380,452Z" fill="#990d77" stroke="#990d77"/><path d="M1380,452L1363,573L1411,490Z" fill="#940d75" stroke="#940d75"/><path d="M1411,490L1363,573L1448,576Z" fill="#8b026e" stroke="#8b026e"/><path d="M-51,554L-42,758L-14,692Z" fill="#cc79a7" stroke="#cc79a7"/><path d="M-51,554L-14,692L28,620Z" fill="#d377ab" stroke="#d377ab"/><path d="M-51,554L28,620L78,516Z" fill="#dc74b2" stroke="#dc74b2"/><path d="M78,516L28,620L118,541Z" fill="#dc70af" stroke="#dc70af"/><path d="M118,541L28,620L144,641Z" fill="#d66ea8" stroke="#d66ea8"/><path d="M118,541L144,641L237,572Z" fill="#d868a6" stroke="#d868a6"/><path d="M237,572L144,641L233,627Z" fill="#d365a0" stroke="#d365a0"/><path d="M237,572L233,627L355,661Z" fill="#d25f9b" stroke="#d25f9b"/><path d="M237,572L355,661L342,514Z" fill="#d75c9d" stroke="#d75c9d"/><path d="M342,514L355,661L431,629Z" fill="#d55698" stroke="#d55698"/><path d="M342,514L431,629L489,570Z" fill="#d9519a" stroke="#d9519a"/><path d="M489,570L431,629L517,658Z" fill="#d14a92" stroke="#d14a92"/><path d="M489,570L517,658L535,541Z" fill="#d54694" stroke="#d54694"/><path d="M535,541L517,658L645,622Z" fill="#d24190" stroke="#d24190"/><path d="M535,541L645,622L674,523Z" fill="#d93b94" stroke="#d93b94"/><path d="M674,523L645,622L730,593Z" fill="#d5338f" stroke="#d5338f"/><path d="M730,593L645,622L729,687Z" fill="#cb3087" stroke="#cb3087"/><path d="M730,593L729,687L815,655Z" fill="#c32783" stroke="#c32783"/><path d="M730,593L815,655L858,591Z" fill="#c32185" stroke="#c32185"/><path d="M858,591L815,655L923,607Z" fill="#bc1781" stroke="#bc1781"/><path d="M858,591L923,607L911,578Z" fill="#bc1283" stroke="#bc1283"/><path d="M911,578L923,607L1038,563Z" fill="#b70981" stroke="#b70981"/><path d="M1038,563L923,607L1044,641Z" fill="#af027c" stroke="#af027c"/><path d="M1038,563L1044,641L1132,633Z" fill="#a60077" stroke="#a60077"/><path d="M1038,563L1132,633L1142,505Z" fill="#a9007b" stroke="#a9007b"/><path d="M1142,505L1132,633L1242,629Z" fill="#9e0075" stroke="#9e0075"/><path d="M1142,505L1242,629L1279,585Z" fill="#9c0074" stroke="#9c0074"/><path d="M1279,585L1242,629L1351,651Z" fill="#8d006b" stroke="#8d006b"/><path d="M1279,585L1351,651L1363,573Z" fill="#8b006b" stroke="#8b006b"/><path d="M1363,573L1351,651L1456,628Z" fill="#830066" stroke="#830066"/><path d="M1363,573L1456,628L1448,576Z" fill="#830067" stroke="#830067"/><path d="M1448,576L1456,628L1489,728Z" fill="#77005f" stroke="#77005f"/><path d="M-14,692L-42,758L18,745Z" fill="#c3779e" stroke="#c3779e"/><path d="M-14,692L18,745L28,620Z" fill="#ca75a2" stroke="#ca75a2"/><path d="M28,620L18,745L133,732Z" fill="#c7719e" stroke="#c7719e"/><path d="M28,620L133,732L144,641Z" fill="#cc6da0" stroke="#cc6da0"/><path d="M144,641L133,732L233,627Z" fill="#cb689b" stroke="#cb689b"/><path d="M233,627L133,732L250,763Z" fill="#c56593" stroke="#c56593"/><path d="M233,627L250,763L318,717Z" fill="#c66091" stroke="#c66091"/><path d="M233,627L318,717L355,661Z" fill="#cb5d93" stroke="#cb5d93"/><path d="M355,661L318,717L416,717Z" fill="#c6578c" stroke="#c6578c"/><path d="M355,661L416,717L431,629Z" fill="#ca538e" stroke="#ca538e"/><path d="M431,629L416,717L517,658Z" fill="#ca4d8d" stroke="#ca4d8d"/><path d="M517,658L416,717L525,763Z" fill="#c34985" stroke="#c34985"/><path d="M517,658L525,763L672,733Z" fill="#c24082" stroke="#c24082"/><path d="M517,658L672,733L645,622Z" fill="#c93b86" stroke="#c93b86"/><path d="M645,622L672,733L729,687Z" fill="#c63382" stroke="#c63382"/><path d="M729,687L672,733L772,743Z" fill="#bb2d7b" stroke="#bb2d7b"/><path d="M729,687L772,743L815,655Z" fill="#ba257c" stroke="#ba257c"/><path d="M815,655L772,743L889,781Z" fill="#b01d75" stroke="#b01d75"/><path d="M815,655L889,781L941,717Z" fill="#ab1574" stroke="#ab1574"/><path d="M815,655L941,717L923,607Z" fill="#b2137a" stroke="#b2137a"/><path d="M923,607L941,717L1044,641Z" fill="#ab0777" stroke="#ab0777"/><path d="M1044,641L941,717L1026,777Z" fill="#9f026e" stroke="#9f026e"/><path d="M1044,641L1026,777L1108,735Z" fill="#98006a" stroke="#98006a"/><path d="M1044,641L1108,735L1132,633Z" fill="#9b006e" stroke="#9b006e"/><path d="M1132,633L1108,735L1216,719Z" fill="#910068" stroke="#910068"/><path d="M1132,633L1216,719L1242,629Z" fill="#91006b" stroke="#91006b"/><path d="M1242,629L1216,719L1351,651Z" fill="#880066" stroke="#880066"/><path d="M1351,651L1216,719L1360,775Z" fill="#7d005d" stroke="#7d005d"/><path d="M1351,651L1360,775L1489,728Z" fill="#730059" stroke="#730059"/><path d="M1351,651L1489,728L1456,628Z" fill="#77005d" stroke="#77005d"/><path d="M-42,758L889,781L250,763Z" fill="#bc5783" stroke="#bc5783"/><path d="M-42,758L250,763L18,745Z" fill="#bf7095" stroke="#bf7095"/><path d="M18,745L250,763L133,732Z" fill="#c06b93" stroke="#c06b93"/><path d="M250,763L889,781L525,763Z" fill="#ba427c" stroke="#ba427c"/><path d="M250,763L525,763L416,717Z" fill="#be5484" stroke="#be5484"/><path d="M250,763L416,717L318,717Z" fill="#c15b89" stroke="#c15b89"/><path d="M525,763L889,781L772,743Z" fill="#b52c75" stroke="#b52c75"/><path d="M525,763L772,743L672,733Z" fill="#bd367b" stroke="#bd367b"/><path d="M889,781L1360,775L1026,777Z" fill="#8c0061" stroke="#8c0061"/><path d="M889,781L1026,777L941,717Z" fill="#9d0a6a" stroke="#9d0a6a"/><path d="M1026,777L1360,775L1108,735Z" fill="#86005f" stroke="#86005f"/><path d="M1108,735L1360,775L1216,719Z" fill="#82005e" stroke="#82005e"/></g></svg>