<svg width="1349" height="651" xmlns="http://www.w3.org/2000/svg"><g><path d="M-83,-10L-89,384L-65,274Z" fill="#ffcbb5" stroke="#ffcbb5"/><path d="M-83,-10L-65,274L-60,113Z" fill="#ffe1cd" stroke="#ffe1cd"/><path d="M-83,-10L-60,113L-6,45Z" fill="#ffefe3" stroke="#ffefe3"/><path d="M-83,-10L-6,45L51,-65Z" fill="#fff4ee" stroke="#fff4ee"/><path d="M51,-65L-6,45L71,44Z" fill="#ffede4" stroke="#ffede4"/><path d="M51,-65L71,44L133,-21Z" fill="#fee9e0" stroke="#fee9e0"/><path d="M51,-65L133,-21L291,-33Z" fill="#fee1d5" stroke="#fee1d5"/><path d="M51,-65L291,-33L475,-92Z" fill="#fed5c7" stroke="#fed5c7"/><path d="M133,-21L71,44L182,50Z" fill="#fee0d2" stroke="#fee0d2"/><path d="M133,-21L182,50L291,-33Z" fill="#fedccf" stroke="#fedccf"/><path d="M291,-33L182,50L246,60Z" fill="#fed4c2" stroke="#fed4c2"/><path d="M291,-33L246,60L338,67Z" fill="#fecdba" stroke="#fecdba"/><path d="M291,-33L338,67L370,-48Z" fill="#fecebf" stroke="#fecebf"/><path d="M291,-33L370,-48L475,-92Z" fill="#fec9ba" stroke="#fec9ba"/><path d="M370,-48L338,67L470,5Z" fill="#fec6b5" stroke="#fec6b5"/><path d="M370,-48L470,5L475,-92Z" fill="#fec3b3" stroke="#fec3b3"/><path d="M475,-92L470,5L539,-35Z" fill="#fdbdad" stroke="#fdbdad"/><path d="M475,-92L539,-35L636,-28Z" fill="#fdb8a8" stroke="#fdb8a8"/><path d="M475,-92L636,-28L790,-41Z" fill="#fcaea0" stroke="#fcaea0"/><path d="M475,-92L790,-41L852,-52Z" fill="#f9a59b" stroke="#f9a59b"/><path d="M475,-92L852,-52L974,-86Z" fill="#f79e96" stroke="#f79e96"/><path d="M475,-92L974,-86L1065,-89Z" fill="#f19793" stroke="#f19793"/><path d="M539,-35L470,5L508,94Z" fill="#fdb9a5" stroke="#fdb9a5"/><path d="M539,-35L508,94L656,39Z" fill="#fdb09b" stroke="#fdb09b"/><path d="M539,-35L656,39L636,-28Z" fill="#fcb1a2" stroke="#fcb1a2"/><path d="M636,-28L656,39L743,50Z" fill="#faa596" stroke="#faa596"/><path d="M636,-28L743,50L790,-41Z" fill="#f9a399" stroke="#f9a399"/><path d="M790,-41L743,50L852,69Z" fill="#f5978c" stroke="#f5978c"/><path d="M790,-41L852,69L852,-52Z" fill="#f29893" stroke="#f29893"/><path d="M852,-52L852,69L933,44Z" fill="#ed908b" stroke="#ed908b"/><path d="M852,-52L933,44L974,-86Z" fill="#e99090" stroke="#e99090"/><path d="M974,-86L933,44L1084,13Z" fill="#e18a8d" stroke="#e18a8d"/><path d="M974,-86L1084,13L1065,-89Z" fill="#db878b" stroke="#db878b"/><path d="M1065,-89L1084,13L1155,-71Z" fill="#d38389" stroke="#d38389"/><path d="M1065,-89L1155,-71L1358,-84Z" fill="#c88085" stroke="#c88085"/><path d="M1155,-71L1084,13L1186,90Z" fill="#ce7f83" stroke="#ce7f83"/><path d="M1155,-71L1186,90L1244,54Z" fill="#c77c7d" stroke="#c77c7d"/><path d="M1155,-71L1244,54L1295,-24Z" fill="#c38083" stroke="#c38083"/><path d="M1155,-71L1295,-24L1358,-84Z" fill="#be8082" stroke="#be8082"/><path d="M1295,-24L1244,54L1337,58Z" fill="#bb7b77" stroke="#bb7b77"/><path d="M1295,-24L1337,58L1441,-12Z" fill="#b27e7d" stroke="#b27e7d"/><path d="M1295,-24L1441,-12L1358,-84Z" fill="#b18080" stroke="#b18080"/><path d="M1441,-12L1337,58L1472,56Z" fill="#aa7a74" stroke="#aa7a74"/><path d="M-6,45L-60,113L62,144Z" fill="#ffe0ca" stroke="#ffe0ca"/><path d="M-6,45L62,144L71,44Z" fill="#ffe0cc" stroke="#ffe0cc"/><path d="M71,44L62,144L182,50Z" fill="#fed9c2" stroke="#fed9c2"/><path d="M182,50L62,144L113,192Z" fill="#feccb1" stroke="#feccb1"/><path d="M182,50L113,192L253,183Z" fill="#fec1a4" stroke="#fec1a4"/><path d="M182,50L253,183L246,60Z" fill="#fec9ab" stroke="#fec9ab"/><path d="M246,60L253,183L356,113Z" fill="#febc9e" stroke="#febc9e"/><path d="M246,60L356,113L338,67Z" fill="#fec2a7" stroke="#fec2a7"/><path d="M338,67L356,113L470,5Z" fill="#febea3" stroke="#febea3"/><path d="M470,5L356,113L508,94Z" fill="#feb79b" stroke="#feb79b"/><path d="M508,94L356,113L466,155Z" fill="#feab8b" stroke="#feab8b"/><path d="M508,94L466,155L526,165Z" fill="#fda180" stroke="#fda180"/><path d="M508,94L526,165L654,172Z" fill="#fd9977" stroke="#fd9977"/><path d="M508,94L654,172L656,39Z" fill="#fc9f81" stroke="#fc9f81"/><path d="M656,39L654,172L706,118Z" fill="#fa9579" stroke="#fa9579"/><path d="M656,39L706,118L743,50Z" fill="#f99a84" stroke="#f99a84"/><path d="M743,50L706,118L852,69Z" fill="#f7907b" stroke="#f7907b"/><path d="M852,69L706,118L869,120Z" fill="#f48772" stroke="#f48772"/><path d="M852,69L869,120L933,44Z" fill="#ed8577" stroke="#ed8577"/><path d="M933,44L869,120L980,144Z" fill="#e97d6d" stroke="#e97d6d"/><path d="M933,44L980,144L1084,13Z" fill="#e17e76" stroke="#e17e76"/><path d="M1084,13L980,144L1043,171Z" fill="#dc7367" stroke="#dc7367"/><path d="M1084,13L1043,171L1136,140Z" fill="#d57065" stroke="#d57065"/><path d="M1084,13L1136,140L1186,90Z" fill="#cf736c" stroke="#cf736c"/><path d="M1186,90L1136,140L1231,172Z" fill="#c96559" stroke="#c96559"/><path d="M1186,90L1231,172L1244,54Z" fill="#c46d61" stroke="#c46d61"/><path d="M1244,54L1231,172L1309,183Z" fill="#bf6455" stroke="#bf6455"/><path d="M1244,54L1309,183L1337,58Z" fill="#ba6e5f" stroke="#ba6e5f"/><path d="M1337,58L1309,183L1421,140Z" fill="#b26756" stroke="#b26756"/><path d="M1337,58L1421,140L1472,56Z" fill="#ab7163" stroke="#ab7163"/><path d="M1472,56L1421,140L1485,390Z" fill="#a55542" stroke="#a55542"/><path d="M-60,113L-65,274L62,144Z" fill="#ffcfb6" stroke="#ffcfb6"/><path d="M62,144L-65,274L84,206Z" fill="#ffc1a7" stroke="#ffc1a7"/><path d="M62,144L84,206L113,192Z" fill="#fec2a6" stroke="#fec2a6"/><path d="M113,192L84,206L156,229Z" fill="#feb79a" stroke="#feb79a"/><path d="M113,192L156,229L253,183Z" fill="#feb393" stroke="#feb393"/><path d="M253,183L156,229L293,278Z" fill="#fea584" stroke="#fea584"/><path d="M253,183L293,278L346,268Z" fill="#fe9b79" stroke="#fe9b79"/><path d="M253,183L346,268L356,113Z" fill="#fea785" stroke="#fea785"/><path d="M356,113L346,268L466,155Z" fill="#fea27f" stroke="#fea27f"/><path d="M466,155L346,268L462,260Z" fill="#fe916e" stroke="#fe916e"/><path d="M466,155L462,260L526,165Z" fill="#fd9471" stroke="#fd9471"/><path d="M526,165L462,260L593,214Z" fill="#fd8b68" stroke="#fd8b68"/><path d="M526,165L593,214L621,207Z" fill="#fd8a67" stroke="#fd8a67"/><path d="M526,165L621,207L654,172Z" fill="#fd8b69" stroke="#fd8b69"/><path d="M654,172L621,207L780,285Z" fill="#fa7658" stroke="#fa7658"/><path d="M654,172L780,285L706,118Z" fill="#f97a5d" stroke="#f97a5d"/><path d="M706,118L780,285L869,120Z" fill="#f6765d" stroke="#f6765d"/><path d="M869,120L780,285L868,277Z" fill="#f1644d" stroke="#f1644d"/><path d="M869,120L868,277L980,144Z" fill="#eb6a57" stroke="#eb6a57"/><path d="M980,144L868,277L982,278Z" fill="#e75948" stroke="#e75948"/><path d="M980,144L982,278L1043,171Z" fill="#e05e4e" stroke="#e05e4e"/><path d="M1043,171L982,278L1090,248Z" fill="#dc5344" stroke="#dc5344"/><path d="M1043,171L1090,248L1136,140Z" fill="#d55b4e" stroke="#d55b4e"/><path d="M1136,140L1090,248L1157,214Z" fill="#d05548" stroke="#d05548"/><path d="M1136,140L1157,214L1231,172Z" fill="#ca5a4d" stroke="#ca5a4d"/><path d="M1231,172L1157,214L1235,264Z" fill="#c64f41" stroke="#c64f41"/><path d="M1231,172L1235,264L1309,183Z" fill="#bf5242" stroke="#bf5242"/><path d="M1309,183L1235,264L1382,229Z" fill="#b84d3a" stroke="#b84d3a"/><path d="M1309,183L1382,229L1421,140Z" fill="#b05845" stroke="#b05845"/><path d="M1421,140L1382,229L1409,286Z" fill="#ac4f3c" stroke="#ac4f3c"/><path d="M1421,140L1409,286L1485,390Z" fill="#a8412e" stroke="#a8412e"/><path d="M-65,274L-89,384L30,419Z" fill="#ff9e8f" stroke="#ff9e8f"/><path d="M-65,274L30,419L94,382Z" fill="#ff9886" stroke="#ff9886"/><path d="M-65,274L94,382L84,206Z" fill="#ffab92" stroke="#ffab92"/><path d="M84,206L94,382L156,229Z" fill="#fea78a" stroke="#fea78a"/><path d="M156,229L94,382L174,365Z" fill="#fe947b" stroke="#fe947b"/><path d="M156,229L174,365L293,278Z" fill="#fe9878" stroke="#fe9878"/><path d="M293,278L174,365L269,391Z" fill="#fe836a" stroke="#fe836a"/><path d="M293,278L269,391L359,345Z" fill="#fe7f63" stroke="#fe7f63"/><path d="M293,278L359,345L346,268Z" fill="#fe8868" stroke="#fe8868"/><path d="M346,268L359,345L442,325Z" fill="#fe7f5f" stroke="#fe7f5f"/><path d="M346,268L442,325L462,260Z" fill="#fe8461" stroke="#fe8461"/><path d="M462,260L442,325L567,319Z" fill="#fd7756" stroke="#fd7756"/><path d="M462,260L567,319L593,214Z" fill="#fd7c59" stroke="#fd7c59"/><path d="M593,214L567,319L621,207Z" fill="#fd7b59" stroke="#fd7b59"/><path d="M621,207L567,319L671,351Z" fill="#fc6b4c" stroke="#fc6b4c"/><path d="M621,207L671,351L780,285Z" fill="#fa6648" stroke="#fa6648"/><path d="M780,285L671,351L709,357Z" fill="#f9533c" stroke="#f9533c"/><path d="M780,285L709,357L879,343Z" fill="#f64c38" stroke="#f64c38"/><path d="M780,285L879,343L868,277Z" fill="#f14f3b" stroke="#f14f3b"/><path d="M868,277L879,343L920,341Z" fill="#ec4636" stroke="#ec4636"/><path d="M868,277L920,341L982,278Z" fill="#e94938" stroke="#e94938"/><path d="M982,278L920,341L1025,317Z" fill="#e44034" stroke="#e44034"/><path d="M982,278L1025,317L1090,248Z" fill="#dc4637" stroke="#dc4637"/><path d="M1090,248L1025,317L1161,345Z" fill="#d53c31" stroke="#d53c31"/><path d="M1090,248L1161,345L1157,214Z" fill="#cf4336" stroke="#cf4336"/><path d="M1157,214L1161,345L1235,264Z" fill="#c94033" stroke="#c94033"/><path d="M1235,264L1161,345L1278,348Z" fill="#c33328" stroke="#c33328"/><path d="M1235,264L1278,348L1307,350Z" fill="#bd3326" stroke="#bd3326"/><path d="M1235,264L1307,350L1382,229Z" fill="#b93f2c" stroke="#b93f2c"/><path d="M1382,229L1307,350L1409,286Z" fill="#b13c2a" stroke="#b13c2a"/><path d="M1409,286L1307,350L1437,457Z" fill="#af261c" stroke="#af261c"/><path d="M1409,286L1437,457L1485,390Z" fill="#a6221a" stroke="#a6221a"/><path d="M-89,384L-93,659L-16,470Z" fill="#ec8488" stroke="#ec8488"/><path d="M-89,384L-16,470L30,419Z" fill="#fb8e85" stroke="#fb8e85"/><path d="M94,382L30,419L123,426Z" fill="#fc8677" stroke="#fc8677"/><path d="M94,382L123,426L174,365Z" fill="#fd8472" stroke="#fd8472"/><path d="M174,365L123,426L262,479Z" fill="#fa7867" stroke="#fa7867"/><path d="M174,365L262,479L269,391Z" fill="#fb7562" stroke="#fb7562"/><path d="M269,391L262,479L333,471Z" fill="#f96958" stroke="#f96958"/><path d="M269,391L333,471L359,345Z" fill="#fc6e58" stroke="#fc6e58"/><path d="M359,345L333,471L466,418Z" fill="#fb6550" stroke="#fb6550"/><path d="M359,345L466,418L442,325Z" fill="#fe6b51" stroke="#fe6b51"/><path d="M442,325L466,418L567,319Z" fill="#fd674c" stroke="#fd674c"/><path d="M567,319L466,418L614,457Z" fill="#fb5640" stroke="#fb5640"/><path d="M567,319L614,457L671,351Z" fill="#fc533c" stroke="#fc533c"/><path d="M671,351L614,457L708,423Z" fill="#f84735" stroke="#f84735"/><path d="M671,351L708,423L709,357Z" fill="#f94936" stroke="#f94936"/><path d="M709,357L708,423L863,437Z" fill="#f53c2e" stroke="#f53c2e"/><path d="M709,357L863,437L879,343Z" fill="#f23b2e" stroke="#f23b2e"/><path d="M879,343L863,437L920,341Z" fill="#ec362c" stroke="#ec362c"/><path d="M920,341L863,437L1007,437Z" fill="#e62c27" stroke="#e62c27"/><path d="M920,341L1007,437L1025,317Z" fill="#e33029" stroke="#e33029"/><path d="M1025,317L1007,437L1161,345Z" fill="#d82a26" stroke="#d82a26"/><path d="M1161,345L1007,437L1176,449Z" fill="#cf1f1f" stroke="#cf1f1f"/><path d="M1161,345L1176,449L1278,348Z" fill="#c5221e" stroke="#c5221e"/><path d="M1278,348L1176,449L1277,478Z" fill="#bd1918" stroke="#bd1918"/><path d="M1278,348L1277,478L1307,350Z" fill="#ba1f19" stroke="#ba1f19"/><path d="M1307,350L1277,478L1338,495Z" fill="#b41614" stroke="#b41614"/><path d="M1307,350L1338,495L1437,457Z" fill="#ad1815" stroke="#ad1815"/><path d="M1485,390L1437,457L1490,593Z" fill="#980f12" stroke="#980f12"/><path d="M-16,470L-93,659L-6,507Z" fill="#de7984" stroke="#de7984"/><path d="M-16,470L-6,507L30,419Z" fill="#f8847e" stroke="#f8847e"/><path d="M30,419L-6,507L123,426Z" fill="#f98179" stroke="#f98179"/><path d="M123,426L-6,507L138,562Z" fill="#ed7472" stroke="#ed7472"/><path d="M123,426L138,562L229,518Z" fill="#eb6b67" stroke="#eb6b67"/><path d="M123,426L229,518L262,479Z" fill="#f46c61" stroke="#f46c61"/><path d="M262,479L229,518L330,508Z" fill="#eb6058" stroke="#eb6058"/><path d="M262,479L330,508L333,471Z" fill="#f05f54" stroke="#f05f54"/><path d="M333,471L330,508L409,533Z" fill="#eb564e" stroke="#eb564e"/><path d="M333,471L409,533L466,418Z" fill="#f45749" stroke="#f45749"/><path d="M466,418L409,533L545,489Z" fill="#f24f42" stroke="#f24f42"/><path d="M466,418L545,489L614,457Z" fill="#f74d3c" stroke="#f74d3c"/><path d="M545,489L409,533L521,609Z" fill="#dd4140" stroke="#dd4140"/><path d="M545,489L521,609L579,513Z" fill="#e03c3a" stroke="#e03c3a"/><path d="M545,489L579,513L614,457Z" fill="#f04337" stroke="#f04337"/><path d="M614,457L579,513L627,583Z" fill="#e53935" stroke="#e53935"/><path d="M614,457L627,583L742,509Z" fill="#e43330" stroke="#e43330"/><path d="M614,457L742,509L708,423Z" fill="#f33a2e" stroke="#f33a2e"/><path d="M708,423L742,509L863,437Z" fill="#f13129" stroke="#f13129"/><path d="M863,437L742,509L813,530Z" fill="#e52726" stroke="#e52726"/><path d="M863,437L813,530L920,590Z" fill="#d61d24" stroke="#d61d24"/><path d="M863,437L920,590L993,463Z" fill="#d81b22" stroke="#d81b22"/><path d="M863,437L993,463L1007,437Z" fill="#e12223" stroke="#e12223"/><path d="M993,463L920,590L1028,518Z" fill="#ca1220" stroke="#ca1220"/><path d="M993,463L1028,518L1007,437Z" fill="#d6191e" stroke="#d6191e"/><path d="M1007,437L1028,518L1176,449Z" fill="#d0171c" stroke="#d0171c"/><path d="M1176,449L1028,518L1114,585Z" fill="#bb0b1a" stroke="#bb0b1a"/><path d="M1176,449L1114,585L1226,513Z" fill="#b30818" stroke="#b30818"/><path d="M1176,449L1226,513L1277,478Z" fill="#b80f15" stroke="#b80f15"/><path d="M1277,478L1226,513L1350,552Z" fill="#a50813" stroke="#a50813"/><path d="M1277,478L1350,552L1338,495Z" fill="#a20a12" stroke="#a20a12"/><path d="M1338,495L1350,552L1437,457Z" fill="#9e0b12" stroke="#9e0b12"/><path d="M1437,457L1350,552L1490,593Z" fill="#8c0512" stroke="#8c0512"/><path d="M-6,507L-93,659L17,611Z" fill="#cf7682" stroke="#cf7682"/><path d="M-6,507L17,611L33,582Z" fill="#d7717c" stroke="#d7717c"/><path d="M-6,507L33,582L138,562Z" fill="#dc6e76" stroke="#dc6e76"/><path d="M33,582L17,611L138,562Z" fill="#d16c75" stroke="#d16c75"/><path d="M138,562L17,611L183,618Z" fill="#cd666e" stroke="#cd666e"/><path d="M138,562L183,618L229,518Z" fill="#d75f64" stroke="#d75f64"/><path d="M229,518L183,618L256,620Z" fill="#d05b5f" stroke="#d05b5f"/><path d="M229,518L256,620L330,508Z" fill="#dc5759" stroke="#dc5759"/><path d="M330,508L256,620L428,624Z" fill="#d14e51" stroke="#d14e51"/><path d="M330,508L428,624L409,533Z" fill="#da494a" stroke="#da494a"/><path d="M409,533L428,624L521,609Z" fill="#cf4244" stroke="#cf4244"/><path d="M579,513L521,609L627,583Z" fill="#d53637" stroke="#d53637"/><path d="M627,583L521,609L679,650Z" fill="#c63134" stroke="#c63134"/><path d="M627,583L679,650L742,509Z" fill="#ce292f" stroke="#ce292f"/><path d="M742,509L679,650L725,654Z" fill="#c5252c" stroke="#c5252c"/><path d="M742,509L725,654L813,530Z" fill="#d11f29" stroke="#d11f29"/><path d="M813,530L725,654L825,649Z" fill="#c01c27" stroke="#c01c27"/><path d="M813,530L825,649L920,590Z" fill="#c11625" stroke="#c11625"/><path d="M920,590L825,649L931,692Z" fill="#ac1323" stroke="#ac1323"/><path d="M920,590L931,692L1021,676Z" fill="#a30d20" stroke="#a30d20"/><path d="M920,590L1021,676L1028,518Z" fill="#b10b1f" stroke="#b10b1f"/><path d="M1028,518L1021,676L1114,585Z" fill="#a9071c" stroke="#a9071c"/><path d="M1114,585L1021,676L1161,658Z" fill="#95041b" stroke="#95041b"/><path d="M1114,585L1161,658L1207,631Z" fill="#920018" stroke="#920018"/><path d="M1114,585L1207,631L1226,513Z" fill="#9e0017" stroke="#9e0017"/><path d="M1226,513L1207,631L1350,552Z" fill="#980014" stroke="#980014"/><path d="M1350,552L1207,631L1364,676Z" fill="#800012" stroke="#800012"/><path d="M1350,552L1364,676L1469,629Z" fill="#750012" stroke="#750012"/><path d="M1350,552L1469,629L1490,593Z" fill="#780012" stroke="#780012"/><path d="M1490,593L1469,629L1428,726Z" fill="#630012" stroke="#630012"/><path d="M-93,659L-58,723L17,611Z" fill="#b87885" stroke="#b87885"/><path d="M17,611L-58,723L70,794Z" fill="#a9727d" stroke="#a9727d"/><path d="M17,611L70,794L183,618Z" fill="#b46971" stroke="#b46971"/><path d="M183,618L70,794L170,783Z" fill="#a2636a" stroke="#a2636a"/><path d="M183,618L170,783L238,757Z" fill="#a55d62" stroke="#a55d62"/><path d="M183,618L238,757L256,620Z" fill="#b75a5e" stroke="#b75a5e"/><path d="M256,620L238,757L321,690Z" fill="#af5559" stroke="#af5559"/><path d="M256,620L321,690L428,624Z" fill="#bd4f51" stroke="#bd4f51"/><path d="M321,690L238,757L394,754Z" fill="#a15053" stroke="#a15053"/><path d="M321,690L394,754L408,719Z" fill="#a54a4c" stroke="#a54a4c"/><path d="M321,690L408,719L428,624Z" fill="#b3494b" stroke="#b3494b"/><path d="M428,624L408,719L521,609Z" fill="#bb4244" stroke="#bb4244"/><path d="M521,609L408,719L553,764Z" fill="#ac3e3f" stroke="#ac3e3f"/><path d="M521,609L553,764L679,650Z" fill="#b33436" stroke="#b33436"/><path d="M679,650L553,764L661,775Z" fill="#a02f33" stroke="#a02f33"/><path d="M679,650L661,775L725,654Z" fill="#aa282e" stroke="#aa282e"/><path d="M725,654L661,775L765,787Z" fill="#9a242c" stroke="#9a242c"/><path d="M725,654L765,787L825,649Z" fill="#a61e28" stroke="#a61e28"/><path d="M825,649L765,787L867,712Z" fill="#9b1926" stroke="#9b1926"/><path d="M825,649L867,712L931,692Z" fill="#a01424" stroke="#a01424"/><path d="M931,692L867,712L911,720Z" fill="#961223" stroke="#961223"/><path d="M931,692L911,720L1019,740Z" fill="#8e0d21" stroke="#8e0d21"/><path d="M931,692L1019,740L1021,676Z" fill="#8f0b1f" stroke="#8f0b1f"/><path d="M1021,676L1019,740L1143,758Z" fill="#7e061c" stroke="#7e061c"/><path d="M1021,676L1143,758L1161,658Z" fill="#81031a" stroke="#81031a"/><path d="M1161,658L1143,758L1292,723Z" fill="#700016" stroke="#700016"/><path d="M1161,658L1292,723L1207,631Z" fill="#7b0016" stroke="#7b0016"/><path d="M1207,631L1292,723L1364,676Z" fill="#700013" stroke="#700013"/><path d="M1364,676L1292,723L1390,730Z" fill="#5e0012" stroke="#5e0012"/><path d="M1364,676L1390,730L1428,726Z" fill="#580012" stroke="#580012"/><path d="M1364,676L1428,726L1469,629Z" fill="#5f0012" stroke="#5f0012"/><path d="M70,794L765,787L170,783Z" fill="#8f4f51" stroke="#8f4f51"/><path d="M170,783L765,787L661,775Z" fill="#913a3c" stroke="#913a3c"/><path d="M170,783L661,775L553,764Z" fill="#944143" stroke="#944143"/><path d="M170,783L553,764L394,754Z" fill="#964b4c" stroke="#964b4c"/><path d="M170,783L394,754L238,757Z" fill="#975659" stroke="#975659"/><path d="M394,754L553,764L408,719Z" fill="#9d4244" stroke="#9d4244"/><path d="M765,787L1143,758L1019,740Z" fill="#7e0b20" stroke="#7e0b20"/><path d="M765,787L1019,740L911,720Z" fill="#891223" stroke="#891223"/><path d="M765,787L911,720L867,712Z" fill="#911725" stroke="#911725"/><path d="M1143,758L1428,726L1390,730Z" fill="#580012" stroke="#580012"/><path d="M1143,758L1390,730L1292,723Z" fill="#5f0013" stroke="#5f0013"/></g></svg>