<svg width="1366" height="667" xmlns="http://www.w3.org/2000/svg"><g><path d="M-52,-117L-77,126L67,70Z" fill="#fff4ef" stroke="#fff4ef"/><path d="M-52,-117L67,70L132,-39Z" fill="#fef0ec" stroke="#fef0ec"/><path d="M-52,-117L132,-39L178,-45Z" fill="#feede9" stroke="#feede9"/><path d="M-52,-117L178,-45L336,-61Z" fill="#fee6e3" stroke="#fee6e3"/><path d="M-52,-117L336,-61L772,-85Z" fill="#fdd3db" stroke="#fdd3db"/><path d="M-52,-117L772,-85L1069,-101Z" fill="#fbb2d0" stroke="#fbb2d0"/><path d="M-52,-117L1069,-101L1452,-98Z" fill="#e994c9" stroke="#e994c9"/><path d="M132,-39L67,70L249,66Z" fill="#fee3df" stroke="#fee3df"/><path d="M132,-39L249,66L178,-45Z" fill="#fee3e1" stroke="#fee3e1"/><path d="M178,-45L249,66L336,-61Z" fill="#fddcde" stroke="#fddcde"/><path d="M336,-61L249,66L417,46Z" fill="#fdd3d9" stroke="#fdd3d9"/><path d="M336,-61L417,46L525,-60Z" fill="#fccad8" stroke="#fccad8"/><path d="M336,-61L525,-60L772,-85Z" fill="#fcbad2" stroke="#fcbad2"/><path d="M525,-60L417,46L578,48Z" fill="#fcbed3" stroke="#fcbed3"/><path d="M525,-60L578,48L654,-58Z" fill="#fbb4d0" stroke="#fbb4d0"/><path d="M525,-60L654,-58L772,-85Z" fill="#f7abcf" stroke="#f7abcf"/><path d="M654,-58L578,48L647,26Z" fill="#f9aecf" stroke="#f9aecf"/><path d="M654,-58L647,26L772,-85Z" fill="#f4a6ce" stroke="#f4a6ce"/><path d="M772,-85L647,26L853,84Z" fill="#f09ccb" stroke="#f09ccb"/><path d="M772,-85L853,84L1028,-97Z" fill="#e28cc5" stroke="#e28cc5"/><path d="M772,-85L1028,-97L1069,-101Z" fill="#d983c0" stroke="#d983c0"/><path d="M1028,-97L853,84L1002,93Z" fill="#d97fbc" stroke="#d97fbc"/><path d="M1028,-97L1002,93L1069,-101Z" fill="#cf80be" stroke="#cf80be"/><path d="M1069,-101L1002,93L1126,96Z" fill="#cb7db9" stroke="#cb7db9"/><path d="M1069,-101L1126,96L1244,38Z" fill="#c07fba" stroke="#c07fba"/><path d="M1069,-101L1244,38L1275,-49Z" fill="#b980bb" stroke="#b980bb"/><path d="M1069,-101L1275,-49L1452,-98Z" fill="#b080ba" stroke="#b080ba"/><path d="M1275,-49L1244,38L1475,124Z" fill="#a77cb3" stroke="#a77cb3"/><path d="M1275,-49L1475,124L1452,-98Z" fill="#9e80b7" stroke="#9e80b7"/><path d="M1452,-98L1475,124L1523,-58Z" fill="#9380b6" stroke="#9380b6"/><path d="M1523,-58L1475,124L1571,123Z" fill="#8e7aac" stroke="#8e7aac"/><path d="M-77,126L-80,786L-63,250Z" fill="#fe9bd1" stroke="#fe9bd1"/><path d="M-77,126L-63,250L75,267Z" fill="#ffcfdc" stroke="#ffcfdc"/><path d="M-77,126L75,267L67,70Z" fill="#ffdbde" stroke="#ffdbde"/><path d="M67,70L75,267L225,181Z" fill="#fecdd4" stroke="#fecdd4"/><path d="M67,70L225,181L249,66Z" fill="#fed7d4" stroke="#fed7d4"/><path d="M249,66L225,181L420,203Z" fill="#fdc1cc" stroke="#fdc1cc"/><path d="M249,66L420,203L417,46Z" fill="#fdc6ce" stroke="#fdc6ce"/><path d="M417,46L420,203L476,202Z" fill="#fcb2c7" stroke="#fcb2c7"/><path d="M417,46L476,202L578,48Z" fill="#fcb6c8" stroke="#fcb6c8"/><path d="M578,48L476,202L635,260Z" fill="#fb9bbf" stroke="#fb9bbf"/><path d="M578,48L635,260L647,26Z" fill="#f9a1c1" stroke="#f9a1c1"/><path d="M647,26L635,260L776,177Z" fill="#f58ebd" stroke="#f58ebd"/><path d="M647,26L776,177L853,84Z" fill="#f093bf" stroke="#f093bf"/><path d="M853,84L776,177L918,242Z" fill="#e676b5" stroke="#e676b5"/><path d="M853,84L918,242L1002,93Z" fill="#dd72b2" stroke="#dd72b2"/><path d="M1002,93L918,242L1090,257Z" fill="#d35daa" stroke="#d35daa"/><path d="M1002,93L1090,257L1126,96Z" fill="#ca6aad" stroke="#ca6aad"/><path d="M1126,96L1090,257L1315,187Z" fill="#bc62a8" stroke="#bc62a8"/><path d="M1126,96L1315,187L1244,38Z" fill="#b573ac" stroke="#b573ac"/><path d="M1244,38L1315,187L1475,124Z" fill="#a671aa" stroke="#a671aa"/><path d="M1475,124L1315,187L1402,279Z" fill="#9f5ea3" stroke="#9f5ea3"/><path d="M1475,124L1402,279L1519,231Z" fill="#9659a0" stroke="#9659a0"/><path d="M1475,124L1519,231L1571,123Z" fill="#8e67a3" stroke="#8e67a3"/><path d="M1571,123L1519,231L1560,351Z" fill="#8a509b" stroke="#8a509b"/><path d="M1571,123L1560,351L1635,848Z" fill="#761785" stroke="#761785"/><path d="M-63,250L-80,786L-46,414Z" fill="#e58dc1" stroke="#e58dc1"/><path d="M-63,250L-46,414L75,267Z" fill="#ffadd1" stroke="#ffadd1"/><path d="M75,267L-46,414L118,337Z" fill="#fe9dc9" stroke="#fe9dc9"/><path d="M75,267L118,337L225,181Z" fill="#feafc8" stroke="#feafc8"/><path d="M225,181L118,337L316,346Z" fill="#fe9ec0" stroke="#fe9ec0"/><path d="M225,181L316,346L420,203Z" fill="#fda3c2" stroke="#fda3c2"/><path d="M420,203L316,346L583,335Z" fill="#fc84b8" stroke="#fc84b8"/><path d="M420,203L583,335L476,202Z" fill="#fc8dba" stroke="#fc8dba"/><path d="M476,202L583,335L635,260Z" fill="#fb7cb4" stroke="#fb7cb4"/><path d="M635,260L583,335L680,373Z" fill="#f860ad" stroke="#f860ad"/><path d="M635,260L680,373L772,348Z" fill="#f456ab" stroke="#f456ab"/><path d="M635,260L772,348L776,177Z" fill="#f268b0" stroke="#f268b0"/><path d="M776,177L772,348L918,242Z" fill="#e95dad" stroke="#e95dad"/><path d="M918,242L772,348L1025,413Z" fill="#df38a1" stroke="#df38a1"/><path d="M918,242L1025,413L1090,257Z" fill="#d2399e" stroke="#d2399e"/><path d="M1090,257L1025,413L1132,395Z" fill="#c92899" stroke="#c92899"/><path d="M1090,257L1132,395L1275,330Z" fill="#bd3199" stroke="#bd3199"/><path d="M1090,257L1275,330L1315,187Z" fill="#b5489e" stroke="#b5489e"/><path d="M1315,187L1275,330L1402,279Z" fill="#a7469b" stroke="#a7469b"/><path d="M1402,279L1275,330L1406,327Z" fill="#a33697" stroke="#a33697"/><path d="M1402,279L1406,327L1519,231Z" fill="#994198" stroke="#994198"/><path d="M1519,231L1406,327L1560,351Z" fill="#923995" stroke="#923995"/><path d="M-46,414L-80,786L-41,502Z" fill="#ca8dbd" stroke="#ca8dbd"/><path d="M-46,414L-41,502L75,544Z" fill="#e388bc" stroke="#e388bc"/><path d="M-46,414L75,544L118,337Z" fill="#f289bf" stroke="#f289bf"/><path d="M118,337L75,544L215,413Z" fill="#f281b7" stroke="#f281b7"/><path d="M118,337L215,413L316,346Z" fill="#fe85bb" stroke="#fe85bb"/><path d="M215,413L75,544L221,491Z" fill="#e477ad" stroke="#e477ad"/><path d="M215,413L221,491L316,346Z" fill="#f477b3" stroke="#f477b3"/><path d="M316,346L221,491L329,549Z" fill="#e96dab" stroke="#e96dab"/><path d="M316,346L329,549L482,510Z" fill="#e764a8" stroke="#e764a8"/><path d="M316,346L482,510L583,335Z" fill="#f863af" stroke="#f863af"/><path d="M583,335L482,510L644,467Z" fill="#ed4da3" stroke="#ed4da3"/><path d="M583,335L644,467L680,373Z" fill="#f54ba8" stroke="#f54ba8"/><path d="M680,373L644,467L772,348Z" fill="#f042a5" stroke="#f042a5"/><path d="M772,348L644,467L875,575Z" fill="#db3099" stroke="#db3099"/><path d="M772,348L875,575L999,479Z" fill="#cd2092" stroke="#cd2092"/><path d="M772,348L999,479L1025,413Z" fill="#d42197" stroke="#d42197"/><path d="M1025,413L999,479L1132,395Z" fill="#c11990" stroke="#c11990"/><path d="M1132,395L999,479L1137,563Z" fill="#af1288" stroke="#af1288"/><path d="M1132,395L1137,563L1320,554Z" fill="#981285" stroke="#981285"/><path d="M1132,395L1320,554L1275,330Z" fill="#a8198d" stroke="#a8198d"/><path d="M1275,330L1320,554L1406,327Z" fill="#a21d8f" stroke="#a21d8f"/><path d="M1406,327L1320,554L1470,505Z" fill="#8a1485" stroke="#8a1485"/><path d="M1406,327L1470,505L1560,351Z" fill="#901e8e" stroke="#901e8e"/><path d="M1560,351L1470,505L1568,510Z" fill="#7a1584" stroke="#7a1584"/><path d="M1560,351L1568,510L1635,848Z" fill="#4f127b" stroke="#4f127b"/><path d="M-41,502L-80,786L-17,670Z" fill="#ad8cb9" stroke="#ad8cb9"/><path d="M-41,502L-17,670L75,544Z" fill="#c887b8" stroke="#c887b8"/><path d="M75,544L-17,670L129,664Z" fill="#b681b0" stroke="#b681b0"/><path d="M75,544L129,664L221,491Z" fill="#c979ac" stroke="#c979ac"/><path d="M221,491L129,664L218,692Z" fill="#b875a6" stroke="#b875a6"/><path d="M221,491L218,692L329,549Z" fill="#c46ea6" stroke="#c46ea6"/><path d="M329,549L218,692L394,694Z" fill="#ae69a1" stroke="#ae69a1"/><path d="M329,549L394,694L477,631Z" fill="#b5609f" stroke="#b5609f"/><path d="M329,549L477,631L482,510Z" fill="#c85ca0" stroke="#c85ca0"/><path d="M482,510L477,631L644,467Z" fill="#d04d9c" stroke="#d04d9c"/><path d="M644,467L477,631L704,724Z" fill="#b74396" stroke="#b74396"/><path d="M644,467L704,724L875,575Z" fill="#b43193" stroke="#b43193"/><path d="M875,575L704,724L814,720Z" fill="#942a8d" stroke="#942a8d"/><path d="M875,575L814,720L921,772Z" fill="#862088" stroke="#862088"/><path d="M875,575L921,772L1035,707Z" fill="#7f1684" stroke="#7f1684"/><path d="M875,575L1035,707L999,479Z" fill="#9b1386" stroke="#9b1386"/><path d="M999,479L1035,707L1137,563Z" fill="#911284" stroke="#911284"/><path d="M1137,563L1035,707L1141,704Z" fill="#731280" stroke="#731280"/><path d="M1137,563L1141,704L1232,650Z" fill="#701280" stroke="#701280"/><path d="M1137,563L1232,650L1320,554Z" fill="#781281" stroke="#781281"/><path d="M1320,554L1232,650L1387,709Z" fill="#5d127d" stroke="#5d127d"/><path d="M1320,554L1387,709L1470,505Z" fill="#63127e" stroke="#63127e"/><path d="M1470,505L1387,709L1556,731Z" fill="#45127a" stroke="#45127a"/><path d="M1470,505L1556,731L1568,510Z" fill="#52127c" stroke="#52127c"/><path d="M1568,510L1556,731L1635,848Z" fill="#261276" stroke="#261276"/><path d="M-17,670L-80,786L102,796Z" fill="#8e87b1" stroke="#8e87b1"/><path d="M-17,670L102,796L129,664Z" fill="#9a80ac" stroke="#9a80ac"/><path d="M129,664L102,796L218,692Z" fill="#9779a5" stroke="#9779a5"/><path d="M218,692L102,796L271,790Z" fill="#8a749f" stroke="#8a749f"/><path d="M218,692L271,790L394,694Z" fill="#946b9e" stroke="#946b9e"/><path d="M394,694L271,790L372,873Z" fill="#80669a" stroke="#80669a"/><path d="M394,694L372,873L572,780Z" fill="#815996" stroke="#815996"/><path d="M394,694L572,780L477,631Z" fill="#9b5498" stroke="#9b5498"/><path d="M477,631L572,780L704,724Z" fill="#974692" stroke="#974692"/><path d="M704,724L572,780L653,794Z" fill="#813e8e" stroke="#813e8e"/><path d="M704,724L653,794L820,770Z" fill="#7d338c" stroke="#7d338c"/><path d="M704,724L820,770L814,720Z" fill="#812c8c" stroke="#812c8c"/><path d="M814,720L820,770L921,772Z" fill="#732287" stroke="#732287"/><path d="M1035,707L921,772L1080,856Z" fill="#58127d" stroke="#58127d"/><path d="M1035,707L1080,856L1141,704Z" fill="#55127d" stroke="#55127d"/><path d="M1141,704L1080,856L1221,800Z" fill="#43127a" stroke="#43127a"/><path d="M1141,704L1221,800L1232,650Z" fill="#53127c" stroke="#53127c"/><path d="M1232,650L1221,800L1387,709Z" fill="#47127b" stroke="#47127b"/><path d="M1387,709L1221,800L1421,865Z" fill="#271277" stroke="#271277"/><path d="M1387,709L1421,865L1556,731Z" fill="#201275" stroke="#201275"/><path d="M1556,731L1421,865L1635,848Z" fill="#0c1272" stroke="#0c1272"/><path d="M-80,786L372,873L102,796Z" fill="#7f7aa2" stroke="#7f7aa2"/><path d="M102,796L372,873L271,790Z" fill="#7e6f9b" stroke="#7e6f9b"/><path d="M372,873L1421,865L1080,856Z" fill="#59157b" stroke="#59157b"/><path d="M372,873L1080,856L653,794Z" fill="#743689" stroke="#743689"/><path d="M372,873L653,794L572,780Z" fill="#7c4d90" stroke="#7c4d90"/><path d="M653,794L1080,856L820,770Z" fill="#662384" stroke="#662384"/><path d="M820,770L1080,856L921,772Z" fill="#5c177f" stroke="#5c177f"/><path d="M1080,856L1421,865L1221,800Z" fill="#341276" stroke="#341276"/></g></svg>