<svg width="1349" height="651" xmlns="http://www.w3.org/2000/svg"><g><path d="M-81,-46L-92,483L-81,16Z" fill="#fffbe2" stroke="#fffbe2"/><path d="M-81,-46L-81,16L61,22Z" fill="#fffcf8" stroke="#fffcf8"/><path d="M-81,-46L61,22L50,-77Z" fill="#fffaf4" stroke="#fffaf4"/><path d="M50,-77L61,22L147,-65Z" fill="#fff6ee" stroke="#fff6ee"/><path d="M50,-77L147,-65L321,-91Z" fill="#fff2e6" stroke="#fff2e6"/><path d="M147,-65L61,22L172,17Z" fill="#fff5ea" stroke="#fff5ea"/><path d="M147,-65L172,17L237,18Z" fill="#fff2e5" stroke="#fff2e5"/><path d="M147,-65L237,18L287,-30Z" fill="#ffefe0" stroke="#ffefe0"/><path d="M147,-65L287,-30L321,-91Z" fill="#ffeddc" stroke="#ffeddc"/><path d="M287,-30L237,18L317,106Z" fill="#feebd7" stroke="#feebd7"/><path d="M287,-30L317,106L370,82Z" fill="#fee9cf" stroke="#fee9cf"/><path d="M287,-30L370,82L422,41Z" fill="#fee5cc" stroke="#fee5cc"/><path d="M287,-30L422,41L321,-91Z" fill="#fee7d0" stroke="#fee7d0"/><path d="M321,-91L422,41L450,-85Z" fill="#fee2c7" stroke="#fee2c7"/><path d="M321,-91L450,-85L1289,-73Z" fill="#fec59c" stroke="#fec59c"/><path d="M450,-85L422,41L536,24Z" fill="#fedabb" stroke="#fedabb"/><path d="M450,-85L536,24L545,-34Z" fill="#fed6b5" stroke="#fed6b5"/><path d="M450,-85L545,-34L668,-76Z" fill="#fed2ae" stroke="#fed2ae"/><path d="M450,-85L668,-76L1289,-73Z" fill="#fab98e" stroke="#fab98e"/><path d="M545,-34L536,24L644,8Z" fill="#fed0ac" stroke="#fed0ac"/><path d="M545,-34L644,8L668,-76Z" fill="#fecca5" stroke="#fecca5"/><path d="M668,-76L644,8L753,-39Z" fill="#fec59c" stroke="#fec59c"/><path d="M668,-76L753,-39L866,-25Z" fill="#fbbd93" stroke="#fbbd93"/><path d="M668,-76L866,-25L939,-32Z" fill="#f9b68c" stroke="#f9b68c"/><path d="M668,-76L939,-32L1110,-44Z" fill="#f4ae86" stroke="#f4ae86"/><path d="M668,-76L1110,-44L1289,-73Z" fill="#eaa380" stroke="#eaa380"/><path d="M753,-39L644,8L746,34Z" fill="#fdc299" stroke="#fdc299"/><path d="M753,-39L746,34L866,-25Z" fill="#faba90" stroke="#faba90"/><path d="M866,-25L746,34L891,68Z" fill="#f9b589" stroke="#f9b589"/><path d="M866,-25L891,68L923,34Z" fill="#f5af85" stroke="#f5af85"/><path d="M866,-25L923,34L939,-32Z" fill="#f4ae86" stroke="#f4ae86"/><path d="M939,-32L923,34L1028,-10Z" fill="#f0a883" stroke="#f0a883"/><path d="M939,-32L1028,-10L1110,-44Z" fill="#e9a380" stroke="#e9a380"/><path d="M1028,-10L923,34L935,118Z" fill="#f0a980" stroke="#f0a980"/><path d="M1028,-10L935,118L1084,64Z" fill="#eba37d" stroke="#eba37d"/><path d="M1028,-10L1084,64L1131,17Z" fill="#dc9e7f" stroke="#dc9e7f"/><path d="M1028,-10L1131,17L1110,-44Z" fill="#da9e81" stroke="#da9e81"/><path d="M1110,-44L1131,17L1220,24Z" fill="#cc9882" stroke="#cc9882"/><path d="M1110,-44L1220,24L1289,-73Z" fill="#c09482" stroke="#c09482"/><path d="M1289,-73L1220,24L1312,-61Z" fill="#b08f83" stroke="#b08f83"/><path d="M1289,-73L1312,-61L1495,-16Z" fill="#9c8783" stroke="#9c8783"/><path d="M1312,-61L1220,24L1385,33Z" fill="#a98c83" stroke="#a98c83"/><path d="M1312,-61L1385,33L1495,-16Z" fill="#948584" stroke="#948584"/><path d="M1495,-16L1385,33L1418,47Z" fill="#8c8283" stroke="#8c8283"/><path d="M1495,-16L1418,47L1408,161Z" fill="#8a8181" stroke="#8a8181"/><path d="M1495,-16L1408,161L1450,288Z" fill="#887e6b" stroke="#887e6b"/><path d="M1495,-16L1450,288L1448,491Z" fill="#856541" stroke="#856541"/><path d="M-81,16L-92,483L-68,371Z" fill="#ffdbac" stroke="#ffdbac"/><path d="M-81,16L-68,371L-48,258Z" fill="#ffedc7" stroke="#ffedc7"/><path d="M-81,16L-48,258L-52,126Z" fill="#fffbe5" stroke="#fffbe5"/><path d="M-81,16L-52,126L61,22Z" fill="#fffbf4" stroke="#fffbf4"/><path d="M61,22L-52,126L83,195Z" fill="#fff7e4" stroke="#fff7e4"/><path d="M61,22L83,195L145,189Z" fill="#fff3d7" stroke="#fff3d7"/><path d="M61,22L145,189L172,17Z" fill="#fff5e6" stroke="#fff5e6"/><path d="M172,17L145,189L259,135Z" fill="#fff0d5" stroke="#fff0d5"/><path d="M172,17L259,135L237,18Z" fill="#ffefdd" stroke="#ffefdd"/><path d="M237,18L259,135L317,106Z" fill="#feecd3" stroke="#feecd3"/><path d="M370,82L317,106L427,135Z" fill="#fee3be" stroke="#fee3be"/><path d="M370,82L427,135L422,41Z" fill="#fee1bf" stroke="#fee1bf"/><path d="M422,41L427,135L536,24Z" fill="#fedbb9" stroke="#fedbb9"/><path d="M536,24L427,135L526,195Z" fill="#fed6a6" stroke="#fed6a6"/><path d="M536,24L526,195L687,116Z" fill="#fece9c" stroke="#fece9c"/><path d="M536,24L687,116L644,8Z" fill="#fecba3" stroke="#fecba3"/><path d="M644,8L687,116L746,34Z" fill="#fec499" stroke="#fec499"/><path d="M746,34L687,116L727,115Z" fill="#fdc191" stroke="#fdc191"/><path d="M746,34L727,115L832,119Z" fill="#fbbc8b" stroke="#fbbc8b"/><path d="M746,34L832,119L891,68Z" fill="#f9b688" stroke="#f9b688"/><path d="M891,68L832,119L935,118Z" fill="#f5af7c" stroke="#f5af7c"/><path d="M891,68L935,118L923,34Z" fill="#f3ad81" stroke="#f3ad81"/><path d="M1084,64L935,118L1069,120Z" fill="#e8a175" stroke="#e8a175"/><path d="M1084,64L1069,120L1108,188Z" fill="#db9c6e" stroke="#db9c6e"/><path d="M1084,64L1108,188L1266,105Z" fill="#cc9771" stroke="#cc9771"/><path d="M1084,64L1266,105L1220,24Z" fill="#c4957e" stroke="#c4957e"/><path d="M1084,64L1220,24L1131,17Z" fill="#ce997f" stroke="#ce997f"/><path d="M1220,24L1266,105L1385,33Z" fill="#ad8d80" stroke="#ad8d80"/><path d="M1385,33L1266,105L1379,106Z" fill="#a1897f" stroke="#a1897f"/><path d="M1385,33L1379,106L1418,47Z" fill="#958580" stroke="#958580"/><path d="M1418,47L1379,106L1408,161Z" fill="#938478" stroke="#938478"/><path d="M-52,126L-48,258L83,195Z" fill="#fff0ca" stroke="#fff0ca"/><path d="M83,195L-48,258L79,264Z" fill="#ffe2b4" stroke="#ffe2b4"/><path d="M83,195L79,264L116,275Z" fill="#ffdead" stroke="#ffdead"/><path d="M83,195L116,275L145,189Z" fill="#ffe3b5" stroke="#ffe3b5"/><path d="M145,189L116,275L218,322Z" fill="#ffd7a2" stroke="#ffd7a2"/><path d="M145,189L218,322L285,221Z" fill="#ffd8a1" stroke="#ffd8a1"/><path d="M145,189L285,221L259,135Z" fill="#ffe6b8" stroke="#ffe6b8"/><path d="M259,135L285,221L317,106Z" fill="#fee8bb" stroke="#fee8bb"/><path d="M317,106L285,221L427,135Z" fill="#fee4b4" stroke="#fee4b4"/><path d="M427,135L285,221L349,273Z" fill="#fed79c" stroke="#fed79c"/><path d="M427,135L349,273L420,289Z" fill="#fecd8c" stroke="#fecd8c"/><path d="M427,135L420,289L526,195Z" fill="#fecd8d" stroke="#fecd8d"/><path d="M526,195L420,289L545,216Z" fill="#fec27b" stroke="#fec27b"/><path d="M526,195L545,216L687,116Z" fill="#fec886" stroke="#fec886"/><path d="M687,116L545,216L608,271Z" fill="#febf78" stroke="#febf78"/><path d="M687,116L608,271L762,287Z" fill="#feb264" stroke="#feb264"/><path d="M687,116L762,287L727,115Z" fill="#fcbb75" stroke="#fcbb75"/><path d="M727,115L762,287L832,119Z" fill="#fbb56e" stroke="#fbb56e"/><path d="M832,119L762,287L873,225Z" fill="#f9a759" stroke="#f9a759"/><path d="M832,119L873,225L935,118Z" fill="#f6ae6b" stroke="#f6ae6b"/><path d="M935,118L873,225L965,276Z" fill="#f29e54" stroke="#f29e54"/><path d="M935,118L965,276L1069,120Z" fill="#eea05f" stroke="#eea05f"/><path d="M1069,120L965,276L1108,188Z" fill="#e49555" stroke="#e49555"/><path d="M1108,188L965,276L1067,283Z" fill="#e4883f" stroke="#e4883f"/><path d="M1108,188L1067,283L1115,210Z" fill="#d98948" stroke="#d98948"/><path d="M1108,188L1115,210L1266,105Z" fill="#ca9361" stroke="#ca9361"/><path d="M1266,105L1115,210L1218,273Z" fill="#c18955" stroke="#c18955"/><path d="M1266,105L1218,273L1324,224Z" fill="#b18254" stroke="#b18254"/><path d="M1266,105L1324,224L1379,106Z" fill="#a5886a" stroke="#a5886a"/><path d="M1379,106L1324,224L1408,161Z" fill="#9a8464" stroke="#9a8464"/><path d="M1408,161L1324,224L1450,288Z" fill="#95724c" stroke="#95724c"/><path d="M-48,258L-68,371L22,391Z" fill="#ffcc99" stroke="#ffcc99"/><path d="M-48,258L22,391L79,264Z" fill="#ffd39f" stroke="#ffd39f"/><path d="M79,264L22,391L116,275Z" fill="#ffcf99" stroke="#ffcf99"/><path d="M116,275L22,391L167,422Z" fill="#ffc089" stroke="#ffc089"/><path d="M116,275L167,422L191,345Z" fill="#ffc287" stroke="#ffc287"/><path d="M116,275L191,345L218,322Z" fill="#ffca8e" stroke="#ffca8e"/><path d="M285,221L218,322L349,273Z" fill="#fecd8e" stroke="#fecd8e"/><path d="M349,273L218,322L340,364Z" fill="#fec07b" stroke="#fec07b"/><path d="M349,273L340,364L420,289Z" fill="#febd75" stroke="#febd75"/><path d="M420,289L340,364L405,387Z" fill="#feb268" stroke="#feb268"/><path d="M420,289L405,387L513,386Z" fill="#feaa5d" stroke="#feaa5d"/><path d="M420,289L513,386L545,216Z" fill="#feb465" stroke="#feb465"/><path d="M545,216L513,386L608,271Z" fill="#feaf5e" stroke="#feaf5e"/><path d="M608,271L513,386L619,350Z" fill="#fea14d" stroke="#fea14d"/><path d="M608,271L619,350L742,349Z" fill="#fe9d45" stroke="#fe9d45"/><path d="M608,271L742,349L762,287Z" fill="#fd9d46" stroke="#fd9d46"/><path d="M762,287L742,349L813,334Z" fill="#fb9136" stroke="#fb9136"/><path d="M762,287L813,334L873,225Z" fill="#f99640" stroke="#f99640"/><path d="M873,225L813,334L965,276Z" fill="#f5903b" stroke="#f5903b"/><path d="M965,276L813,334L942,368Z" fill="#f4832a" stroke="#f4832a"/><path d="M965,276L942,368L1008,343Z" fill="#ef7b25" stroke="#ef7b25"/><path d="M965,276L1008,343L1067,283Z" fill="#ec7e2d" stroke="#ec7e2d"/><path d="M1067,283L1008,343L1182,358Z" fill="#db7224" stroke="#db7224"/><path d="M1067,283L1182,358L1218,273Z" fill="#cb722d" stroke="#cb722d"/><path d="M1067,283L1218,273L1115,210Z" fill="#d0803d" stroke="#d0803d"/><path d="M1218,273L1182,358L1255,369Z" fill="#bd6625" stroke="#bd6625"/><path d="M1218,273L1255,369L1324,224Z" fill="#b26d33" stroke="#b26d33"/><path d="M1324,224L1255,369L1395,338Z" fill="#a5632c" stroke="#a5632c"/><path d="M1324,224L1395,338L1450,288Z" fill="#966436" stroke="#966436"/><path d="M1450,288L1395,338L1427,362Z" fill="#8e5627" stroke="#8e5627"/><path d="M1450,288L1427,362L1448,491Z" fill="#8a471c" stroke="#8a471c"/><path d="M-68,371L-92,483L18,441Z" fill="#ffb58b" stroke="#ffb58b"/><path d="M-68,371L18,441L22,391Z" fill="#ffbb8a" stroke="#ffbb8a"/><path d="M22,391L18,441L167,422Z" fill="#ffb481" stroke="#ffb481"/><path d="M191,345L167,422L268,478Z" fill="#ffad74" stroke="#ffad74"/><path d="M191,345L268,478L218,322Z" fill="#ffb577" stroke="#ffb577"/><path d="M218,322L268,478L340,364Z" fill="#feb06f" stroke="#feb06f"/><path d="M340,364L268,478L335,449Z" fill="#fea366" stroke="#fea366"/><path d="M340,364L335,449L405,387Z" fill="#fea661" stroke="#fea661"/><path d="M405,387L335,449L476,445Z" fill="#fe9b58" stroke="#fe9b58"/><path d="M405,387L476,445L513,386Z" fill="#fe9a4e" stroke="#fe9a4e"/><path d="M513,386L476,445L551,413Z" fill="#fe9346" stroke="#fe9346"/><path d="M513,386L551,413L619,350Z" fill="#fe9745" stroke="#fe9745"/><path d="M619,350L551,413L633,452Z" fill="#fe8d3a" stroke="#fe8d3a"/><path d="M619,350L633,452L742,349Z" fill="#fe8c36" stroke="#fe8c36"/><path d="M742,349L633,452L741,466Z" fill="#fd7e2c" stroke="#fd7e2c"/><path d="M742,349L741,466L813,334Z" fill="#fb822a" stroke="#fb822a"/><path d="M813,334L741,466L841,470Z" fill="#fa7421" stroke="#fa7421"/><path d="M813,334L841,470L914,454Z" fill="#f76f1b" stroke="#f76f1b"/><path d="M813,334L914,454L942,368Z" fill="#f5741e" stroke="#f5741e"/><path d="M942,368L914,454L1048,483Z" fill="#ef6115" stroke="#ef6115"/><path d="M942,368L1048,483L1008,343Z" fill="#ed6615" stroke="#ed6615"/><path d="M1008,343L1048,483L1145,447Z" fill="#e05a13" stroke="#e05a13"/><path d="M1008,343L1145,447L1182,358Z" fill="#d56119" stroke="#d56119"/><path d="M1182,358L1145,447L1255,369Z" fill="#c35817" stroke="#c35817"/><path d="M1255,369L1145,447L1288,461Z" fill="#bb4d14" stroke="#bb4d14"/><path d="M1255,369L1288,461L1369,429Z" fill="#aa4815" stroke="#aa4815"/><path d="M1255,369L1369,429L1395,338Z" fill="#a1501b" stroke="#a1501b"/><path d="M1395,338L1369,429L1427,362Z" fill="#944c1d" stroke="#944c1d"/><path d="M1427,362L1369,429L1448,491Z" fill="#903d16" stroke="#903d16"/><path d="M-92,483L-58,688L10,641Z" fill="#c1908b" stroke="#c1908b"/><path d="M-92,483L10,641L-8,509Z" fill="#e19c8a" stroke="#e19c8a"/><path d="M-92,483L-8,509L18,441Z" fill="#ffa98a" stroke="#ffa98a"/><path d="M18,441L-8,509L46,529Z" fill="#fda486" stroke="#fda486"/><path d="M18,441L46,529L167,422Z" fill="#ffa881" stroke="#ffa881"/><path d="M167,422L46,529L156,572Z" fill="#f49c7d" stroke="#f49c7d"/><path d="M167,422L156,572L268,478Z" fill="#fd9c75" stroke="#fd9c75"/><path d="M268,478L156,572L256,589Z" fill="#df8e71" stroke="#df8e71"/><path d="M268,478L256,589L371,560Z" fill="#e18b68" stroke="#e18b68"/><path d="M268,478L371,560L335,449Z" fill="#fa9364" stroke="#fa9364"/><path d="M335,449L371,560L471,519Z" fill="#f3895a" stroke="#f3895a"/><path d="M335,449L471,519L476,445Z" fill="#fe8e54" stroke="#fe8e54"/><path d="M476,445L471,519L538,532Z" fill="#f98149" stroke="#f98149"/><path d="M476,445L538,532L551,413Z" fill="#fe8745" stroke="#fe8745"/><path d="M551,413L538,532L633,452Z" fill="#fe813e" stroke="#fe813e"/><path d="M633,452L538,532L652,576Z" fill="#ed7239" stroke="#ed7239"/><path d="M633,452L652,576L741,466Z" fill="#f97030" stroke="#f97030"/><path d="M741,466L652,576L751,541Z" fill="#e7652b" stroke="#e7652b"/><path d="M741,466L751,541L841,470Z" fill="#f96623" stroke="#f96623"/><path d="M841,470L751,541L837,549Z" fill="#e85d1f" stroke="#e85d1f"/><path d="M841,470L837,549L914,454Z" fill="#f55d1a" stroke="#f55d1a"/><path d="M914,454L837,549L976,542Z" fill="#e55418" stroke="#e55418"/><path d="M914,454L976,542L1012,514Z" fill="#e75115" stroke="#e75115"/><path d="M914,454L1012,514L1048,483Z" fill="#ee5213" stroke="#ee5213"/><path d="M1048,483L1012,514L1175,561Z" fill="#cc4313" stroke="#cc4313"/><path d="M1048,483L1175,561L1145,447Z" fill="#ce4413" stroke="#ce4413"/><path d="M1145,447L1175,561L1237,517Z" fill="#ba3d14" stroke="#ba3d14"/><path d="M1145,447L1237,517L1288,461Z" fill="#bc4114" stroke="#bc4114"/><path d="M1288,461L1237,517L1314,531Z" fill="#a73715" stroke="#a73715"/><path d="M1288,461L1314,531L1369,429Z" fill="#a53a15" stroke="#a53a15"/><path d="M1369,429L1314,531L1448,491Z" fill="#993315" stroke="#993315"/><path d="M1448,491L1314,531L1428,559Z" fill="#7f2816" stroke="#7f2816"/><path d="M1448,491L1428,559L1413,691Z" fill="#5b1b16" stroke="#5b1b16"/><path d="M1448,491L1413,691L1416,765Z" fill="#370e16" stroke="#370e16"/><path d="M-8,509L10,641L46,529Z" fill="#d99786" stroke="#d99786"/><path d="M46,529L10,641L156,572Z" fill="#cd9081" stroke="#cd9081"/><path d="M156,572L10,641L172,675Z" fill="#b2847e" stroke="#b2847e"/><path d="M156,572L172,675L211,651Z" fill="#b18077" stroke="#b18077"/><path d="M156,572L211,651L256,589Z" fill="#c08474" stroke="#c08474"/><path d="M256,589L211,651L333,653Z" fill="#b17b6c" stroke="#b17b6c"/><path d="M256,589L333,653L371,560Z" fill="#c17d65" stroke="#c17d65"/><path d="M371,560L333,653L443,626Z" fill="#bb755b" stroke="#bb755b"/><path d="M371,560L443,626L471,519Z" fill="#d37a54" stroke="#d37a54"/><path d="M471,519L443,626L518,617Z" fill="#c9714c" stroke="#c9714c"/><path d="M471,519L518,617L538,532Z" fill="#da7447" stroke="#da7447"/><path d="M538,532L518,617L652,576Z" fill="#cf6b3e" stroke="#cf6b3e"/><path d="M652,576L518,617L626,673Z" fill="#b65e3a" stroke="#b65e3a"/><path d="M652,576L626,673L785,634Z" fill="#b2542e" stroke="#b2542e"/><path d="M652,576L785,634L751,541Z" fill="#c95829" stroke="#c95829"/><path d="M751,541L785,634L837,549Z" fill="#cc5422" stroke="#cc5422"/><path d="M837,549L785,634L826,632Z" fill="#ba4b1f" stroke="#ba4b1f"/><path d="M837,549L826,632L976,542Z" fill="#c74b19" stroke="#c74b19"/><path d="M976,542L826,632L974,671Z" fill="#ae3e17" stroke="#ae3e17"/><path d="M976,542L974,671L1011,663Z" fill="#a43614" stroke="#a43614"/><path d="M976,542L1011,663L1012,514Z" fill="#bf3f13" stroke="#bf3f13"/><path d="M1012,514L1011,663L1175,561Z" fill="#af3813" stroke="#af3813"/><path d="M1175,561L1011,663L1151,680Z" fill="#862a13" stroke="#862a13"/><path d="M1175,561L1151,680L1292,671Z" fill="#6f2214" stroke="#6f2214"/><path d="M1175,561L1292,671L1237,517Z" fill="#862a14" stroke="#862a14"/><path d="M1237,517L1292,671L1314,531Z" fill="#812915" stroke="#812915"/><path d="M1314,531L1292,671L1362,658Z" fill="#5e1c15" stroke="#5e1c15"/><path d="M1314,531L1362,658L1428,559Z" fill="#682015" stroke="#682015"/><path d="M1428,559L1362,658L1413,691Z" fill="#431216" stroke="#431216"/><path d="M-58,688L-41,788L54,744Z" fill="#807b89" stroke="#807b89"/><path d="M-58,688L54,744L10,641Z" fill="#927d87" stroke="#927d87"/><path d="M10,641L54,744L121,738Z" fill="#897882" stroke="#897882"/><path d="M10,641L121,738L172,675Z" fill="#95797f" stroke="#95797f"/><path d="M172,675L121,738L245,769Z" fill="#7f7377" stroke="#7f7377"/><path d="M172,675L245,769L211,651Z" fill="#8d7173" stroke="#8d7173"/><path d="M211,651L245,769L333,653Z" fill="#916f6c" stroke="#916f6c"/><path d="M333,653L245,769L315,775Z" fill="#7f6b68" stroke="#7f6b68"/><path d="M333,653L315,775L409,789Z" fill="#7f6760" stroke="#7f6760"/><path d="M333,653L409,789L443,626Z" fill="#926459" stroke="#926459"/><path d="M443,626L409,789L587,707Z" fill="#885a4c" stroke="#885a4c"/><path d="M443,626L587,707L518,617Z" fill="#a76046" stroke="#a76046"/><path d="M518,617L587,707L626,673Z" fill="#9e573d" stroke="#9e573d"/><path d="M626,673L587,707L682,747Z" fill="#874b36" stroke="#874b36"/><path d="M626,673L682,747L785,634Z" fill="#93472d" stroke="#93472d"/><path d="M785,634L682,747L720,789Z" fill="#7d4129" stroke="#7d4129"/><path d="M785,634L720,789L894,741Z" fill="#7c3921" stroke="#7c3921"/><path d="M785,634L894,741L826,632Z" fill="#973c1c" stroke="#973c1c"/><path d="M826,632L894,741L974,671Z" fill="#8c3318" stroke="#8c3318"/><path d="M974,671L894,741L959,778Z" fill="#722b16" stroke="#722b16"/><path d="M974,671L959,778L1023,777Z" fill="#6f2714" stroke="#6f2714"/><path d="M974,671L1023,777L1011,663Z" fill="#782513" stroke="#782513"/><path d="M1011,663L1023,777L1113,750Z" fill="#642113" stroke="#642113"/><path d="M1011,663L1113,750L1151,680Z" fill="#691e13" stroke="#691e13"/><path d="M1151,680L1113,750L1232,762Z" fill="#4a1814" stroke="#4a1814"/><path d="M1151,680L1232,762L1292,671Z" fill="#471314" stroke="#471314"/><path d="M1292,671L1232,762L1325,755Z" fill="#2f0f15" stroke="#2f0f15"/><path d="M1292,671L1325,755L1362,658Z" fill="#350c15" stroke="#350c15"/><path d="M1362,658L1325,755L1413,691Z" fill="#280815" stroke="#280815"/><path d="M1413,691L1325,755L1416,765Z" fill="#180616" stroke="#180616"/><path d="M-41,788L409,789L315,775Z" fill="#7f6f71" stroke="#7f6f71"/><path d="M-41,788L315,775L245,769Z" fill="#7f7378" stroke="#7f7378"/><path d="M-41,788L245,769L121,738Z" fill="#7f767e" stroke="#7f767e"/><path d="M-41,788L121,738L54,744Z" fill="#807983" stroke="#807983"/><path d="M409,789L720,789L587,707Z" fill="#7f513e" stroke="#7f513e"/><path d="M587,707L720,789L682,747Z" fill="#7f4831" stroke="#7f4831"/><path d="M720,789L1416,765L1023,777Z" fill="#632113" stroke="#632113"/><path d="M720,789L1023,777L959,778Z" fill="#752f18" stroke="#752f18"/><path d="M720,789L959,778L894,741Z" fill="#78331a" stroke="#78331a"/><path d="M1023,777L1416,765L1232,762Z" fill="#3c1314" stroke="#3c1314"/><path d="M1023,777L1232,762L1113,750Z" fill="#531b13" stroke="#531b13"/><path d="M1232,762L1416,765L1325,755Z" fill="#250b15" stroke="#250b15"/></g></svg>