<svg width="1349" height="651" xmlns="http://www.w3.org/2000/svg"><g><path d="M-92,-83L-66,707L-65,269Z" fill="#ffb7e6" stroke="#ffb7e6"/><path d="M-92,-83L-65,269L-60,73Z" fill="#fffbff" stroke="#fffbff"/><path d="M-92,-83L-60,73L15,-21Z" fill="#fefdfe" stroke="#fefdfe"/><path d="M-92,-83L15,-21L150,-47Z" fill="#faf8fb" stroke="#faf8fb"/><path d="M-92,-83L150,-47L439,-71Z" fill="#f2eef6" stroke="#f2eef6"/><path d="M-92,-83L439,-71L743,-82Z" fill="#e7d4e9" stroke="#e7d4e9"/><path d="M-92,-83L743,-82L1179,-82Z" fill="#f0b0d6" stroke="#f0b0d6"/><path d="M15,-21L-60,73L45,64Z" fill="#fbfafc" stroke="#fbfafc"/><path d="M15,-21L45,64L114,52Z" fill="#f8f6fa" stroke="#f8f6fa"/><path d="M15,-21L114,52L150,-47Z" fill="#f6f4f9" stroke="#f6f4f9"/><path d="M150,-47L114,52L220,-17Z" fill="#f3eff6" stroke="#f3eff6"/><path d="M150,-47L220,-17L439,-71Z" fill="#ece0ef" stroke="#ece0ef"/><path d="M220,-17L114,52L224,80Z" fill="#f1ebf5" stroke="#f1ebf5"/><path d="M220,-17L224,80L350,30Z" fill="#ece1ef" stroke="#ece1ef"/><path d="M220,-17L350,30L394,-22Z" fill="#e9daeb" stroke="#e9daeb"/><path d="M220,-17L394,-22L439,-71Z" fill="#e8d6ea" stroke="#e8d6ea"/><path d="M394,-22L350,30L410,57Z" fill="#e7d2e7" stroke="#e7d2e7"/><path d="M394,-22L410,57L439,-71Z" fill="#e6cee5" stroke="#e6cee5"/><path d="M439,-71L410,57L550,-39Z" fill="#e5c7e2" stroke="#e5c7e2"/><path d="M439,-71L550,-39L743,-82Z" fill="#eeb6d9" stroke="#eeb6d9"/><path d="M550,-39L410,57L550,65Z" fill="#e8c1df" stroke="#e8c1df"/><path d="M550,-39L550,65L650,-6Z" fill="#eeb5d9" stroke="#eeb5d9"/><path d="M550,-39L650,-6L743,-82Z" fill="#f1a9d2" stroke="#f1a9d2"/><path d="M650,-6L550,65L652,83Z" fill="#f0afd5" stroke="#f0afd5"/><path d="M650,-6L652,83L760,76Z" fill="#f2a1cd" stroke="#f2a1cd"/><path d="M650,-6L760,76L743,-82Z" fill="#f29bc9" stroke="#f29bc9"/><path d="M743,-82L760,76L807,-55Z" fill="#f293c1" stroke="#f293c1"/><path d="M743,-82L807,-55L1179,-82Z" fill="#e588aa" stroke="#e588aa"/><path d="M807,-55L760,76L805,83Z" fill="#f091be" stroke="#f091be"/><path d="M807,-55L805,83L855,105Z" fill="#ed8fb8" stroke="#ed8fb8"/><path d="M807,-55L855,105L961,-12Z" fill="#e98baf" stroke="#e98baf"/><path d="M807,-55L961,-12L1011,-30Z" fill="#e287a9" stroke="#e287a9"/><path d="M807,-55L1011,-30L1179,-82Z" fill="#d583a4" stroke="#d583a4"/><path d="M961,-12L855,105L976,54Z" fill="#e187a9" stroke="#e187a9"/><path d="M961,-12L976,54L1011,-30Z" fill="#d884a5" stroke="#d884a5"/><path d="M1011,-30L976,54L1012,61Z" fill="#d583a4" stroke="#d583a4"/><path d="M1011,-30L1012,61L1108,81Z" fill="#cd80a2" stroke="#cd80a2"/><path d="M1011,-30L1108,81L1179,-82Z" fill="#c4809b" stroke="#c4809b"/><path d="M1179,-82L1108,81L1276,-21Z" fill="#b58091" stroke="#b58091"/><path d="M1179,-82L1276,-21L1376,-11Z" fill="#a78086" stroke="#a78086"/><path d="M1179,-82L1376,-11L1467,-30Z" fill="#9c8080" stroke="#9c8080"/><path d="M1276,-21L1108,81L1292,68Z" fill="#af808c" stroke="#af808c"/><path d="M1276,-21L1292,68L1350,64Z" fill="#a28082" stroke="#a28082"/><path d="M1276,-21L1350,64L1376,-11Z" fill="#9d8080" stroke="#9d8080"/><path d="M1376,-11L1350,64L1428,88Z" fill="#958080" stroke="#958080"/><path d="M1376,-11L1428,88L1467,-30Z" fill="#8f8080" stroke="#8f8080"/><path d="M1467,-30L1428,88L1477,225Z" fill="#897b80" stroke="#897b80"/><path d="M-60,73L-65,269L-49,171Z" fill="#fbe4fb" stroke="#fbe4fb"/><path d="M-60,73L-49,171L45,64Z" fill="#fcf4fd" stroke="#fcf4fd"/><path d="M45,64L-49,171L27,181Z" fill="#faeafc" stroke="#faeafc"/><path d="M45,64L27,181L116,129Z" fill="#f7e9fa" stroke="#f7e9fa"/><path d="M45,64L116,129L114,52Z" fill="#f6f2f9" stroke="#f6f2f9"/><path d="M114,52L116,129L224,80Z" fill="#f3edf7" stroke="#f3edf7"/><path d="M224,80L116,129L216,185Z" fill="#f0def5" stroke="#f0def5"/><path d="M224,80L216,185L325,182Z" fill="#ebd0ef" stroke="#ebd0ef"/><path d="M224,80L325,182L350,30Z" fill="#e9d6ed" stroke="#e9d6ed"/><path d="M350,30L325,182L410,57Z" fill="#e7d1e9" stroke="#e7d1e9"/><path d="M410,57L325,182L476,165Z" fill="#e5c1e6" stroke="#e5c1e6"/><path d="M410,57L476,165L513,146Z" fill="#e5bbe2" stroke="#e5bbe2"/><path d="M410,57L513,146L550,65Z" fill="#e7bfe0" stroke="#e7bfe0"/><path d="M550,65L513,146L606,154Z" fill="#ecaedb" stroke="#ecaedb"/><path d="M550,65L606,154L652,83Z" fill="#efabd7" stroke="#efabd7"/><path d="M652,83L606,154L716,182Z" fill="#f097d0" stroke="#f097d0"/><path d="M652,83L716,182L760,76Z" fill="#f293ca" stroke="#f293ca"/><path d="M760,76L716,182L805,83Z" fill="#f28ac3" stroke="#f28ac3"/><path d="M805,83L716,182L760,239Z" fill="#ef7bc0" stroke="#ef7bc0"/><path d="M805,83L760,239L855,105Z" fill="#ed7fbb" stroke="#ed7fbb"/><path d="M976,54L855,105L984,136Z" fill="#df80a8" stroke="#df80a8"/><path d="M976,54L984,136L1012,61Z" fill="#d681a5" stroke="#d681a5"/><path d="M1012,61L984,136L1050,167Z" fill="#d176a3" stroke="#d176a3"/><path d="M1012,61L1050,167L1108,81Z" fill="#ca79a0" stroke="#ca79a0"/><path d="M1108,81L1050,167L1184,168Z" fill="#c07099" stroke="#c07099"/><path d="M1108,81L1184,168L1250,127Z" fill="#b67391" stroke="#b67391"/><path d="M1108,81L1250,127L1292,68Z" fill="#b07b8d" stroke="#b07b8d"/><path d="M1292,68L1250,127L1324,183Z" fill="#a47384" stroke="#a47384"/><path d="M1292,68L1324,183L1350,64Z" fill="#9f7880" stroke="#9f7880"/><path d="M1350,64L1324,183L1427,141Z" fill="#977280" stroke="#977280"/><path d="M1350,64L1427,141L1428,88Z" fill="#927a80" stroke="#927a80"/><path d="M1428,88L1427,141L1477,225Z" fill="#8a6d7f" stroke="#8a6d7f"/><path d="M-49,171L-65,269L27,181Z" fill="#f6d7f5" stroke="#f6d7f5"/><path d="M27,181L-65,269L57,250Z" fill="#f5cbf0" stroke="#f5cbf0"/><path d="M27,181L57,250L116,129Z" fill="#f3d8f5" stroke="#f3d8f5"/><path d="M116,129L57,250L128,269Z" fill="#eeccf0" stroke="#eeccf0"/><path d="M116,129L128,269L216,185Z" fill="#eecff1" stroke="#eecff1"/><path d="M216,185L128,269L206,248Z" fill="#ecbee9" stroke="#ecbee9"/><path d="M216,185L206,248L325,182Z" fill="#e6bfe9" stroke="#e6bfe9"/><path d="M325,182L206,248L347,263Z" fill="#e4b0e2" stroke="#e4b0e2"/><path d="M325,182L347,263L464,255Z" fill="#e1a5dc" stroke="#e1a5dc"/><path d="M325,182L464,255L476,165Z" fill="#dfabde" stroke="#dfabde"/><path d="M476,165L464,255L520,266Z" fill="#e098d5" stroke="#e098d5"/><path d="M476,165L520,266L513,146Z" fill="#e3a1d9" stroke="#e3a1d9"/><path d="M513,146L520,266L606,154Z" fill="#e69cd6" stroke="#e69cd6"/><path d="M606,154L520,266L589,309Z" fill="#e885cc" stroke="#e885cc"/><path d="M606,154L589,309L682,247Z" fill="#ea7ec8" stroke="#ea7ec8"/><path d="M606,154L682,247L716,182Z" fill="#ec84c9" stroke="#ec84c9"/><path d="M716,182L682,247L760,239Z" fill="#eb71bf" stroke="#eb71bf"/><path d="M855,105L760,239L852,237Z" fill="#e86fb2" stroke="#e86fb2"/><path d="M855,105L852,237L984,136Z" fill="#e473a9" stroke="#e473a9"/><path d="M984,136L852,237L907,264Z" fill="#dd62a1" stroke="#dd62a1"/><path d="M984,136L907,264L1051,241Z" fill="#d15d9d" stroke="#d15d9d"/><path d="M984,136L1051,241L1050,167Z" fill="#cb659e" stroke="#cb659e"/><path d="M1050,167L1051,241L1124,239Z" fill="#c05995" stroke="#c05995"/><path d="M1050,167L1124,239L1184,168Z" fill="#bb6093" stroke="#bb6093"/><path d="M1184,168L1124,239L1270,240Z" fill="#ad5987" stroke="#ad5987"/><path d="M1184,168L1270,240L1250,127Z" fill="#a96487" stroke="#a96487"/><path d="M1250,127L1270,240L1324,183Z" fill="#a16380" stroke="#a16380"/><path d="M1324,183L1270,240L1385,251Z" fill="#985575" stroke="#985575"/><path d="M1324,183L1385,251L1427,141Z" fill="#91607a" stroke="#91607a"/><path d="M1427,141L1385,251L1477,225Z" fill="#875c78" stroke="#875c78"/><path d="M-65,269L-66,707L-51,489Z" fill="#e183a9" stroke="#e183a9"/><path d="M-65,269L-51,489L-47,334Z" fill="#fe96d0" stroke="#fe96d0"/><path d="M-65,269L-47,334L57,250Z" fill="#fcb9e7" stroke="#fcb9e7"/><path d="M57,250L-47,334L39,362Z" fill="#faa8dd" stroke="#faa8dd"/><path d="M57,250L39,362L117,310Z" fill="#f7a9de" stroke="#f7a9de"/><path d="M57,250L117,310L128,269Z" fill="#f4b5e5" stroke="#f4b5e5"/><path d="M128,269L117,310L206,248Z" fill="#f2b2e3" stroke="#f2b2e3"/><path d="M206,248L117,310L267,329Z" fill="#f0a4db" stroke="#f0a4db"/><path d="M206,248L267,329L347,263Z" fill="#eaa0da" stroke="#eaa0da"/><path d="M347,263L267,329L335,333Z" fill="#e98dcf" stroke="#e98dcf"/><path d="M347,263L335,333L456,371Z" fill="#e77fc7" stroke="#e77fc7"/><path d="M347,263L456,371L464,255Z" fill="#e586cc" stroke="#e586cc"/><path d="M464,255L456,371L520,266Z" fill="#e67dc8" stroke="#e67dc8"/><path d="M520,266L456,371L589,309Z" fill="#ea6ebf" stroke="#ea6ebf"/><path d="M682,247L589,309L656,334Z" fill="#f063b9" stroke="#f063b9"/><path d="M682,247L656,334L769,339Z" fill="#f252af" stroke="#f252af"/><path d="M682,247L769,339L760,239Z" fill="#f159b2" stroke="#f159b2"/><path d="M760,239L769,339L852,237Z" fill="#ee54aa" stroke="#ee54aa"/><path d="M852,237L769,339L862,376Z" fill="#ed3d98" stroke="#ed3d98"/><path d="M852,237L862,376L907,264Z" fill="#e94698" stroke="#e94698"/><path d="M907,264L862,376L966,384Z" fill="#e52b83" stroke="#e52b83"/><path d="M907,264L966,384L1051,241Z" fill="#d93d8d" stroke="#d93d8d"/><path d="M1051,241L966,384L1055,382Z" fill="#d0277e" stroke="#d0277e"/><path d="M1051,241L1055,382L1135,320Z" fill="#c7307f" stroke="#c7307f"/><path d="M1051,241L1135,320L1124,239Z" fill="#c04588" stroke="#c04588"/><path d="M1124,239L1135,320L1250,311Z" fill="#b83c7c" stroke="#b83c7c"/><path d="M1124,239L1250,311L1270,240Z" fill="#ae467c" stroke="#ae467c"/><path d="M1270,240L1250,311L1335,321Z" fill="#a53c6e" stroke="#a53c6e"/><path d="M1270,240L1335,321L1385,251Z" fill="#9c436d" stroke="#9c436d"/><path d="M1385,251L1335,321L1425,328Z" fill="#953766" stroke="#953766"/><path d="M1385,251L1425,328L1477,225Z" fill="#8c456d" stroke="#8c456d"/><path d="M1477,225L1425,328L1474,462Z" fill="#89245a" stroke="#89245a"/><path d="M1477,225L1474,462L1491,659Z" fill="#7a0e31" stroke="#7a0e31"/><path d="M-47,334L-51,489L16,462Z" fill="#f98eb3" stroke="#f98eb3"/><path d="M-47,334L16,462L39,362Z" fill="#fa90c4" stroke="#fa90c4"/><path d="M39,362L16,462L180,411Z" fill="#f489b7" stroke="#f489b7"/><path d="M39,362L180,411L117,310Z" fill="#f58ccb" stroke="#f58ccb"/><path d="M117,310L180,411L267,329Z" fill="#f18acb" stroke="#f18acb"/><path d="M267,329L180,411L234,475Z" fill="#ec7bb2" stroke="#ec7bb2"/><path d="M267,329L234,475L335,422Z" fill="#e874ad" stroke="#e874ad"/><path d="M267,329L335,422L335,333Z" fill="#e974be" stroke="#e974be"/><path d="M335,333L335,422L456,371Z" fill="#e66ab4" stroke="#e66ab4"/><path d="M456,371L335,422L487,493Z" fill="#e15f9b" stroke="#e15f9b"/><path d="M456,371L487,493L541,489Z" fill="#dc5191" stroke="#dc5191"/><path d="M456,371L541,489L589,309Z" fill="#e954a4" stroke="#e954a4"/><path d="M589,309L541,489L652,447Z" fill="#eb4794" stroke="#eb4794"/><path d="M589,309L652,447L656,334Z" fill="#f045a6" stroke="#f045a6"/><path d="M656,334L652,447L769,339Z" fill="#f13899" stroke="#f13899"/><path d="M769,339L652,447L823,423Z" fill="#f12a86" stroke="#f12a86"/><path d="M769,339L823,423L862,376Z" fill="#ed2684" stroke="#ed2684"/><path d="M862,376L823,423L958,460Z" fill="#e51e67" stroke="#e51e67"/><path d="M862,376L958,460L966,384Z" fill="#de1b68" stroke="#de1b68"/><path d="M966,384L958,460L1011,410Z" fill="#d51860" stroke="#d51860"/><path d="M966,384L1011,410L1055,382Z" fill="#d11869" stroke="#d11869"/><path d="M1055,382L1011,410L1090,577Z" fill="#bd0c51" stroke="#bd0c51"/><path d="M1055,382L1090,577L1188,440Z" fill="#af0a48" stroke="#af0a48"/><path d="M1055,382L1188,440L1135,320Z" fill="#be1763" stroke="#be1763"/><path d="M1135,320L1188,440L1250,311Z" fill="#b51b64" stroke="#b51b64"/><path d="M1250,311L1188,440L1230,453Z" fill="#ad154e" stroke="#ad154e"/><path d="M1250,311L1230,453L1322,426Z" fill="#a6154b" stroke="#a6154b"/><path d="M1250,311L1322,426L1335,321Z" fill="#a21d58" stroke="#a21d58"/><path d="M1335,321L1322,426L1425,328Z" fill="#991a53" stroke="#991a53"/><path d="M1425,328L1322,426L1474,462Z" fill="#8f1540" stroke="#8f1540"/><path d="M-51,489L-66,707L-39,551Z" fill="#bb7e90" stroke="#bb7e90"/><path d="M-51,489L-39,551L28,536Z" fill="#d07ca0" stroke="#d07ca0"/><path d="M-51,489L28,536L16,462Z" fill="#db7da6" stroke="#db7da6"/><path d="M16,462L28,536L137,531Z" fill="#d276a2" stroke="#d276a2"/><path d="M16,462L137,531L180,411Z" fill="#e17da7" stroke="#e17da7"/><path d="M180,411L137,531L234,475Z" fill="#dc74a2" stroke="#dc74a2"/><path d="M234,475L137,531L289,593Z" fill="#bf6793" stroke="#bf6793"/><path d="M234,475L289,593L384,546Z" fill="#b85c8c" stroke="#b85c8c"/><path d="M234,475L384,546L335,422Z" fill="#d06198" stroke="#d06198"/><path d="M335,422L384,546L487,493Z" fill="#c95592" stroke="#c95592"/><path d="M487,493L384,546L490,565Z" fill="#b44a83" stroke="#b44a83"/><path d="M487,493L490,565L544,514Z" fill="#bc4182" stroke="#bc4182"/><path d="M487,493L544,514L541,489Z" fill="#c84187" stroke="#c84187"/><path d="M541,489L544,514L652,447Z" fill="#d33b85" stroke="#d33b85"/><path d="M652,447L544,514L629,570Z" fill="#c9317e" stroke="#c9317e"/><path d="M652,447L629,570L715,514Z" fill="#cb2677" stroke="#cb2677"/><path d="M652,447L715,514L790,490Z" fill="#d72075" stroke="#d72075"/><path d="M652,447L790,490L823,423Z" fill="#e62174" stroke="#e62174"/><path d="M790,490L715,514L859,546Z" fill="#c71264" stroke="#c71264"/><path d="M790,490L859,546L823,423Z" fill="#d11463" stroke="#d11463"/><path d="M823,423L859,546L923,529Z" fill="#c70d5a" stroke="#c70d5a"/><path d="M823,423L923,529L958,460Z" fill="#d11259" stroke="#d11259"/><path d="M958,460L923,529L1008,613Z" fill="#ab0547" stroke="#ab0547"/><path d="M958,460L1008,613L1090,577Z" fill="#9b023f" stroke="#9b023f"/><path d="M958,460L1090,577L1011,410Z" fill="#b7084f" stroke="#b7084f"/><path d="M1188,440L1090,577L1191,505Z" fill="#95003c" stroke="#95003c"/><path d="M1188,440L1191,505L1230,453Z" fill="#a00a3d" stroke="#a00a3d"/><path d="M1230,453L1191,505L1275,528Z" fill="#8e0335" stroke="#8e0335"/><path d="M1230,453L1275,528L1322,426Z" fill="#930934" stroke="#930934"/><path d="M1322,426L1275,528L1324,553Z" fill="#7f012b" stroke="#7f012b"/><path d="M1322,426L1324,553L1474,462Z" fill="#7d072c" stroke="#7d072c"/><path d="M1474,462L1324,553L1420,588Z" fill="#610020" stroke="#610020"/><path d="M1474,462L1420,588L1491,659Z" fill="#4a0015" stroke="#4a0015"/><path d="M-39,551L-66,707L-8,654Z" fill="#a47d7f" stroke="#a47d7f"/><path d="M-39,551L-8,654L28,536Z" fill="#b97b8f" stroke="#b97b8f"/><path d="M28,536L-8,654L91,625Z" fill="#ad7886" stroke="#ad7886"/><path d="M28,536L91,625L137,531Z" fill="#bb7591" stroke="#bb7591"/><path d="M137,531L91,625L148,652Z" fill="#a97284" stroke="#a97284"/><path d="M137,531L148,652L289,593Z" fill="#a96b83" stroke="#a96b83"/><path d="M289,593L148,652L286,631Z" fill="#996576" stroke="#996576"/><path d="M289,593L286,631L350,653Z" fill="#945c71" stroke="#945c71"/><path d="M289,593L350,653L384,546Z" fill="#9f5878" stroke="#9f5878"/><path d="M384,546L350,653L415,690Z" fill="#90526b" stroke="#90526b"/><path d="M384,546L415,690L490,565Z" fill="#9a4d71" stroke="#9a4d71"/><path d="M490,565L415,690L509,640Z" fill="#8f4765" stroke="#8f4765"/><path d="M490,565L509,640L629,570Z" fill="#a43c6b" stroke="#a43c6b"/><path d="M490,565L629,570L544,514Z" fill="#b53a77" stroke="#b53a77"/><path d="M629,570L509,640L686,669Z" fill="#9a315c" stroke="#9a315c"/><path d="M629,570L686,669L715,514Z" fill="#ad235f" stroke="#ad235f"/><path d="M715,514L686,669L735,679Z" fill="#9f1c50" stroke="#9f1c50"/><path d="M715,514L735,679L859,546Z" fill="#af1354" stroke="#af1354"/><path d="M859,546L735,679L810,692Z" fill="#95113d" stroke="#95113d"/><path d="M859,546L810,692L940,619Z" fill="#970c37" stroke="#970c37"/><path d="M859,546L940,619L923,529Z" fill="#a90941" stroke="#a90941"/><path d="M923,529L940,619L1008,613Z" fill="#970638" stroke="#970638"/><path d="M1090,577L1008,613L1072,731Z" fill="#700021" stroke="#700021"/><path d="M1090,577L1072,731L1165,658Z" fill="#61001b" stroke="#61001b"/><path d="M1090,577L1165,658L1191,505Z" fill="#790028" stroke="#790028"/><path d="M1191,505L1165,658L1244,616Z" fill="#6c001e" stroke="#6c001e"/><path d="M1191,505L1244,616L1275,528Z" fill="#770026" stroke="#770026"/><path d="M1275,528L1244,616L1324,553Z" fill="#69001c" stroke="#69001c"/><path d="M1324,553L1244,616L1373,611Z" fill="#590010" stroke="#590010"/><path d="M1324,553L1373,611L1420,588Z" fill="#530011" stroke="#530011"/><path d="M1420,588L1373,611L1491,659Z" fill="#3b0007" stroke="#3b0007"/><path d="M-8,654L-66,707L81,736Z" fill="#897a7d" stroke="#897a7d"/><path d="M-8,654L81,736L91,625Z" fill="#91777b" stroke="#91777b"/><path d="M91,625L81,736L148,652Z" fill="#8f7379" stroke="#8f7379"/><path d="M148,652L81,736L192,793Z" fill="#767178" stroke="#767178"/><path d="M148,652L192,793L279,774Z" fill="#706974" stroke="#706974"/><path d="M148,652L279,774L286,631Z" fill="#816572" stroke="#816572"/><path d="M286,631L279,774L350,653Z" fill="#7d5c6d" stroke="#7d5c6d"/><path d="M350,653L279,774L388,731Z" fill="#6e586b" stroke="#6e586b"/><path d="M350,653L388,731L415,690Z" fill="#785268" stroke="#785268"/><path d="M415,690L388,731L456,795Z" fill="#664e66" stroke="#664e66"/><path d="M415,690L456,795L540,781Z" fill="#664762" stroke="#664762"/><path d="M415,690L540,781L509,640Z" fill="#734461" stroke="#734461"/><path d="M509,640L540,781L686,669Z" fill="#7c365a" stroke="#7c365a"/><path d="M686,669L540,781L664,772Z" fill="#712d54" stroke="#712d54"/><path d="M686,669L664,772L735,679Z" fill="#7c204c" stroke="#7c204c"/><path d="M735,679L664,772L771,761Z" fill="#731a49" stroke="#731a49"/><path d="M735,679L771,761L810,692Z" fill="#7a1341" stroke="#7a1341"/><path d="M810,692L771,761L845,712Z" fill="#73103b" stroke="#73103b"/><path d="M810,692L845,712L940,619Z" fill="#810c31" stroke="#810c31"/><path d="M940,619L845,712L908,789Z" fill="#71092c" stroke="#71092c"/><path d="M940,619L908,789L1072,731Z" fill="#610527" stroke="#610527"/><path d="M940,619L1072,731L1008,613Z" fill="#730324" stroke="#730324"/><path d="M1165,658L1072,731L1179,723Z" fill="#490017" stroke="#490017"/><path d="M1165,658L1179,723L1244,616Z" fill="#4f0010" stroke="#4f0010"/><path d="M1244,616L1179,723L1288,706Z" fill="#42000b" stroke="#42000b"/><path d="M1244,616L1288,706L1373,611Z" fill="#460003" stroke="#460003"/><path d="M1373,611L1288,706L1360,708Z" fill="#340000" stroke="#340000"/><path d="M1373,611L1360,708L1491,659Z" fill="#2f0000" stroke="#2f0000"/><path d="M1491,659L1360,708L1464,795Z" fill="#110000" stroke="#110000"/><path d="M-66,707L192,793L81,736Z" fill="#78767a" stroke="#78767a"/><path d="M192,793L456,795L279,774Z" fill="#6a5c6d" stroke="#6a5c6d"/><path d="M279,774L456,795L388,731Z" fill="#685469" stroke="#685469"/><path d="M456,795L1464,795L908,789Z" fill="#5f0729" stroke="#5f0729"/><path d="M456,795L908,789L664,772Z" fill="#72234f" stroke="#72234f"/><path d="M456,795L664,772L540,781Z" fill="#6c3a5c" stroke="#6c3a5c"/><path d="M664,772L908,789L771,761Z" fill="#711240" stroke="#711240"/><path d="M771,761L908,789L845,712Z" fill="#6c0e35" stroke="#6c0e35"/><path d="M908,789L1464,795L1179,723Z" fill="#360012" stroke="#360012"/><path d="M908,789L1179,723L1072,731Z" fill="#4c0021" stroke="#4c0021"/><path d="M1179,723L1464,795L1288,706Z" fill="#220002" stroke="#220002"/><path d="M1288,706L1464,795L1360,708Z" fill="#180000" stroke="#180000"/></g></svg>