<svg width="1349" height="651" xmlns="http://www.w3.org/2000/svg"><g><path d="M-81,-92L-89,194L-17,34Z" fill="#ffffff" stroke="#ffffff"/><path d="M-81,-92L-17,34L61,-90Z" fill="#fcfcfc" stroke="#fcfcfc"/><path d="M-81,-92L61,-90L470,-93Z" fill="#f1f1f1" stroke="#f1f1f1"/><path d="M61,-90L-17,34L65,67Z" fill="#f9f9f9" stroke="#f9f9f9"/><path d="M61,-90L65,67L109,-83Z" fill="#f6f6f6" stroke="#f6f6f6"/><path d="M61,-90L109,-83L470,-93Z" fill="#ededed" stroke="#ededed"/><path d="M109,-83L65,67L191,50Z" fill="#f3f3f3" stroke="#f3f3f3"/><path d="M109,-83L191,50L262,-19Z" fill="#efefef" stroke="#efefef"/><path d="M109,-83L262,-19L325,-29Z" fill="#ececec" stroke="#ececec"/><path d="M109,-83L325,-29L470,-93Z" fill="#e7e7e7" stroke="#e7e7e7"/><path d="M262,-19L191,50L220,85Z" fill="#ececec" stroke="#ececec"/><path d="M262,-19L220,85L379,55Z" fill="#e8e8e8" stroke="#e8e8e8"/><path d="M262,-19L379,55L325,-29Z" fill="#e6e6e6" stroke="#e6e6e6"/><path d="M325,-29L379,55L484,13Z" fill="#e2e2e2" stroke="#e2e2e2"/><path d="M325,-29L484,13L470,-93Z" fill="#e0e0e0" stroke="#e0e0e0"/><path d="M470,-93L484,13L532,-92Z" fill="#dadada" stroke="#dadada"/><path d="M532,-92L484,13L512,39Z" fill="#d9d9d9" stroke="#d9d9d9"/><path d="M532,-92L512,39L669,-41Z" fill="#d4d4d4" stroke="#d4d4d4"/><path d="M532,-92L669,-41L873,-74Z" fill="#c9c9c9" stroke="#c9c9c9"/><path d="M532,-92L873,-74L1482,-68Z" fill="#a9a9a9" stroke="#a9a9a9"/><path d="M669,-41L512,39L685,94Z" fill="#cfcfcf" stroke="#cfcfcf"/><path d="M669,-41L685,94L717,84Z" fill="#c9c9c9" stroke="#c9c9c9"/><path d="M669,-41L717,84L775,-21Z" fill="#c6c6c6" stroke="#c6c6c6"/><path d="M669,-41L775,-21L873,-74Z" fill="#c0c0c0" stroke="#c0c0c0"/><path d="M775,-21L717,84L842,60Z" fill="#bfbfbf" stroke="#bfbfbf"/><path d="M775,-21L842,60L873,-74Z" fill="#b9b9b9" stroke="#b9b9b9"/><path d="M873,-74L842,60L912,50Z" fill="#b4b4b4" stroke="#b4b4b4"/><path d="M873,-74L912,50L954,-63Z" fill="#afafaf" stroke="#afafaf"/><path d="M873,-74L954,-63L1056,-57Z" fill="#a9a9a9" stroke="#a9a9a9"/><path d="M873,-74L1056,-57L1311,-56Z" fill="#989898" stroke="#989898"/><path d="M873,-74L1311,-56L1482,-68Z" fill="#858585" stroke="#858585"/><path d="M954,-63L912,50L1026,11Z" fill="#a8a8a8" stroke="#a8a8a8"/><path d="M954,-63L1026,11L1056,-57Z" fill="#a2a2a2" stroke="#a2a2a2"/><path d="M1056,-57L1026,11L1171,75Z" fill="#989898" stroke="#989898"/><path d="M1056,-57L1171,75L1187,-53Z" fill="#909090" stroke="#909090"/><path d="M1056,-57L1187,-53L1311,-56Z" fill="#8a8a8a" stroke="#8a8a8a"/><path d="M1187,-53L1171,75L1215,-19Z" fill="#898989" stroke="#898989"/><path d="M1187,-53L1215,-19L1311,-56Z" fill="#838383" stroke="#838383"/><path d="M1215,-19L1171,75L1236,47Z" fill="#878787" stroke="#878787"/><path d="M1215,-19L1236,47L1311,-56Z" fill="#808080" stroke="#808080"/><path d="M1311,-56L1236,47L1328,51Z" fill="#808080" stroke="#808080"/><path d="M1311,-56L1328,51L1461,38Z" fill="#808080" stroke="#808080"/><path d="M1311,-56L1461,38L1482,-68Z" fill="#808080" stroke="#808080"/><path d="M1482,-68L1461,38L1477,177Z" fill="#808080" stroke="#808080"/><path d="M1482,-68L1477,177L1485,252Z" fill="#7e7e7e" stroke="#7e7e7e"/><path d="M-17,34L-89,194L35,130Z" fill="#fbfbfb" stroke="#fbfbfb"/><path d="M-17,34L35,130L65,67Z" fill="#f9f9f9" stroke="#f9f9f9"/><path d="M65,67L35,130L106,181Z" fill="#f4f4f4" stroke="#f4f4f4"/><path d="M65,67L106,181L191,50Z" fill="#f3f3f3" stroke="#f3f3f3"/><path d="M191,50L106,181L220,85Z" fill="#f0f0f0" stroke="#f0f0f0"/><path d="M220,85L106,181L226,169Z" fill="#eaeaea" stroke="#eaeaea"/><path d="M220,85L226,169L379,55Z" fill="#e9e9e9" stroke="#e9e9e9"/><path d="M379,55L226,169L384,183Z" fill="#e2e2e2" stroke="#e2e2e2"/><path d="M379,55L384,183L432,109Z" fill="#e0e0e0" stroke="#e0e0e0"/><path d="M379,55L432,109L484,13Z" fill="#dfdfdf" stroke="#dfdfdf"/><path d="M484,13L432,109L512,39Z" fill="#dcdcdc" stroke="#dcdcdc"/><path d="M512,39L432,109L512,134Z" fill="#dbdbdb" stroke="#dbdbdb"/><path d="M512,39L512,134L685,94Z" fill="#d4d4d4" stroke="#d4d4d4"/><path d="M685,94L512,134L682,127Z" fill="#cdcdcd" stroke="#cdcdcd"/><path d="M685,94L682,127L717,84Z" fill="#c8c8c8" stroke="#c8c8c8"/><path d="M717,84L682,127L786,194Z" fill="#c1c1c1" stroke="#c1c1c1"/><path d="M717,84L786,194L815,133Z" fill="#bcbcbc" stroke="#bcbcbc"/><path d="M717,84L815,133L842,60Z" fill="#bdbdbd" stroke="#bdbdbd"/><path d="M842,60L815,133L912,50Z" fill="#b6b6b6" stroke="#b6b6b6"/><path d="M912,50L815,133L969,152Z" fill="#b1b1b1" stroke="#b1b1b1"/><path d="M912,50L969,152L1026,11Z" fill="#a8a8a8" stroke="#a8a8a8"/><path d="M1026,11L969,152L1029,179Z" fill="#a1a1a1" stroke="#a1a1a1"/><path d="M1026,11L1029,179L1150,112Z" fill="#9a9a9a" stroke="#9a9a9a"/><path d="M1026,11L1150,112L1171,75Z" fill="#939393" stroke="#939393"/><path d="M1171,75L1150,112L1279,157Z" fill="#878787" stroke="#878787"/><path d="M1171,75L1279,157L1236,47Z" fill="#848484" stroke="#848484"/><path d="M1236,47L1279,157L1328,51Z" fill="#808080" stroke="#808080"/><path d="M1328,51L1279,157L1393,174Z" fill="#7d7d7d" stroke="#7d7d7d"/><path d="M1328,51L1393,174L1461,38Z" fill="#808080" stroke="#808080"/><path d="M1461,38L1393,174L1477,177Z" fill="#7d7d7d" stroke="#7d7d7d"/><path d="M-89,194L-53,766L-68,377Z" fill="#b7b7b7" stroke="#b7b7b7"/><path d="M-89,194L-68,377L-59,286Z" fill="#e2e2e2" stroke="#e2e2e2"/><path d="M-89,194L-59,286L42,243Z" fill="#eaeaea" stroke="#eaeaea"/><path d="M-89,194L42,243L35,130Z" fill="#f1f1f1" stroke="#f1f1f1"/><path d="M35,130L42,243L106,181Z" fill="#ededed" stroke="#ededed"/><path d="M106,181L42,243L126,283Z" fill="#e2e2e2" stroke="#e2e2e2"/><path d="M106,181L126,283L226,169Z" fill="#e3e3e3" stroke="#e3e3e3"/><path d="M226,169L126,283L271,268Z" fill="#d9d9d9" stroke="#d9d9d9"/><path d="M226,169L271,268L341,223Z" fill="#d9d9d9" stroke="#d9d9d9"/><path d="M226,169L341,223L384,183Z" fill="#dbdbdb" stroke="#dbdbdb"/><path d="M384,183L341,223L488,243Z" fill="#d2d2d2" stroke="#d2d2d2"/><path d="M384,183L488,243L512,134Z" fill="#d2d2d2" stroke="#d2d2d2"/><path d="M384,183L512,134L432,109Z" fill="#dadada" stroke="#dadada"/><path d="M512,134L488,243L506,252Z" fill="#cccccc" stroke="#cccccc"/><path d="M512,134L506,252L694,228Z" fill="#c6c6c6" stroke="#c6c6c6"/><path d="M512,134L694,228L682,127Z" fill="#c7c7c7" stroke="#c7c7c7"/><path d="M682,127L694,228L734,229Z" fill="#bbbbbb" stroke="#bbbbbb"/><path d="M682,127L734,229L786,194Z" fill="#bababa" stroke="#bababa"/><path d="M786,194L734,229L825,283Z" fill="#acacac" stroke="#acacac"/><path d="M786,194L825,283L969,221Z" fill="#a3a3a3" stroke="#a3a3a3"/><path d="M786,194L969,221L815,133Z" fill="#acacac" stroke="#acacac"/><path d="M815,133L969,221L969,152Z" fill="#a6a6a6" stroke="#a6a6a6"/><path d="M969,152L969,221L1029,179Z" fill="#9a9a9a" stroke="#9a9a9a"/><path d="M1029,179L969,221L1025,252Z" fill="#939393" stroke="#939393"/><path d="M1029,179L1025,252L1107,261Z" fill="#8a8a8a" stroke="#8a8a8a"/><path d="M1029,179L1107,261L1150,112Z" fill="#8c8c8c" stroke="#8c8c8c"/><path d="M1150,112L1107,261L1207,220Z" fill="#828282" stroke="#828282"/><path d="M1150,112L1207,220L1279,157Z" fill="#7f7f7f" stroke="#7f7f7f"/><path d="M1279,157L1207,220L1305,274Z" fill="#717171" stroke="#717171"/><path d="M1279,157L1305,274L1393,174Z" fill="#737373" stroke="#737373"/><path d="M1393,174L1305,274L1485,252Z" fill="#6d6d6d" stroke="#6d6d6d"/><path d="M1393,174L1485,252L1477,177Z" fill="#737373" stroke="#737373"/><path d="M-59,286L-68,377L35,407Z" fill="#cecece" stroke="#cecece"/><path d="M-59,286L35,407L65,387Z" fill="#cbcbcb" stroke="#cbcbcb"/><path d="M-59,286L65,387L42,243Z" fill="#d9d9d9" stroke="#d9d9d9"/><path d="M42,243L65,387L126,283Z" fill="#d5d5d5" stroke="#d5d5d5"/><path d="M126,283L65,387L172,347Z" fill="#c9c9c9" stroke="#c9c9c9"/><path d="M126,283L172,347L271,268Z" fill="#cecece" stroke="#cecece"/><path d="M271,268L172,347L266,390Z" fill="#c3c3c3" stroke="#c3c3c3"/><path d="M271,268L266,390L326,351Z" fill="#bfbfbf" stroke="#bfbfbf"/><path d="M271,268L326,351L341,223Z" fill="#cacaca" stroke="#cacaca"/><path d="M341,223L326,351L422,387Z" fill="#bfbfbf" stroke="#bfbfbf"/><path d="M341,223L422,387L488,243Z" fill="#c3c3c3" stroke="#c3c3c3"/><path d="M488,243L422,387L506,252Z" fill="#bdbdbd" stroke="#bdbdbd"/><path d="M506,252L422,387L581,308Z" fill="#b6b6b6" stroke="#b6b6b6"/><path d="M506,252L581,308L694,228Z" fill="#b9b9b9" stroke="#b9b9b9"/><path d="M694,228L581,308L649,363Z" fill="#adadad" stroke="#adadad"/><path d="M694,228L649,363L788,320Z" fill="#a5a5a5" stroke="#a5a5a5"/><path d="M694,228L788,320L734,229Z" fill="#ababab" stroke="#ababab"/><path d="M734,229L788,320L825,283Z" fill="#a3a3a3" stroke="#a3a3a3"/><path d="M825,283L788,320L831,344Z" fill="#979797" stroke="#979797"/><path d="M825,283L831,344L970,319Z" fill="#909090" stroke="#909090"/><path d="M825,283L970,319L969,221Z" fill="#939393" stroke="#939393"/><path d="M969,221L970,319L1025,252Z" fill="#8c8c8c" stroke="#8c8c8c"/><path d="M1025,252L970,319L1044,318Z" fill="#828282" stroke="#828282"/><path d="M1025,252L1044,318L1107,261Z" fill="#808080" stroke="#808080"/><path d="M1107,261L1044,318L1112,334Z" fill="#767676" stroke="#767676"/><path d="M1107,261L1112,334L1207,220Z" fill="#757575" stroke="#757575"/><path d="M1207,220L1112,334L1292,312Z" fill="#696969" stroke="#696969"/><path d="M1207,220L1292,312L1305,274Z" fill="#666666" stroke="#666666"/><path d="M1305,274L1292,312L1337,363Z" fill="#5c5c5c" stroke="#5c5c5c"/><path d="M1305,274L1337,363L1458,350Z" fill="#595959" stroke="#595959"/><path d="M1305,274L1458,350L1485,252Z" fill="#616161" stroke="#616161"/><path d="M1485,252L1458,350L1450,436Z" fill="#545454" stroke="#545454"/><path d="M1485,252L1450,436L1483,658Z" fill="#363636" stroke="#363636"/><path d="M-68,377L-53,766L-45,654Z" fill="#828282" stroke="#828282"/><path d="M-68,377L-45,654L-43,562Z" fill="#999999" stroke="#999999"/><path d="M-68,377L-43,562L-9,485Z" fill="#ababab" stroke="#ababab"/><path d="M-68,377L-9,485L35,407Z" fill="#bbbbbb" stroke="#bbbbbb"/><path d="M65,387L35,407L168,542Z" fill="#adadad" stroke="#adadad"/><path d="M65,387L168,542L193,433Z" fill="#a6a6a6" stroke="#a6a6a6"/><path d="M65,387L193,433L172,347Z" fill="#bababa" stroke="#bababa"/><path d="M172,347L193,433L266,390Z" fill="#b5b5b5" stroke="#b5b5b5"/><path d="M266,390L193,433L226,442Z" fill="#ababab" stroke="#ababab"/><path d="M266,390L226,442L307,476Z" fill="#a5a5a5" stroke="#a5a5a5"/><path d="M266,390L307,476L326,351Z" fill="#ababab" stroke="#ababab"/><path d="M326,351L307,476L422,387Z" fill="#a8a8a8" stroke="#a8a8a8"/><path d="M422,387L307,476L441,414Z" fill="#a0a0a0" stroke="#a0a0a0"/><path d="M422,387L441,414L581,308Z" fill="#a9a9a9" stroke="#a9a9a9"/><path d="M581,308L441,414L588,471Z" fill="#9c9c9c" stroke="#9c9c9c"/><path d="M581,308L588,471L649,363Z" fill="#9b9b9b" stroke="#9b9b9b"/><path d="M649,363L588,471L656,415Z" fill="#8f8f8f" stroke="#8f8f8f"/><path d="M649,363L656,415L788,320Z" fill="#979797" stroke="#979797"/><path d="M788,320L656,415L763,477Z" fill="#888888" stroke="#888888"/><path d="M788,320L763,477L831,344Z" fill="#888888" stroke="#888888"/><path d="M831,344L763,477L861,452Z" fill="#787878" stroke="#787878"/><path d="M831,344L861,452L970,319Z" fill="#808080" stroke="#808080"/><path d="M970,319L861,452L933,495Z" fill="#6d6d6d" stroke="#6d6d6d"/><path d="M970,319L933,495L1057,444Z" fill="#656565" stroke="#656565"/><path d="M970,319L1057,444L1044,318Z" fill="#707070" stroke="#707070"/><path d="M1044,318L1057,444L1112,334Z" fill="#696969" stroke="#696969"/><path d="M1112,334L1057,444L1124,445Z" fill="#595959" stroke="#595959"/><path d="M1112,334L1124,445L1292,312Z" fill="#5b5b5b" stroke="#5b5b5b"/><path d="M1292,312L1124,445L1218,493Z" fill="#474747" stroke="#474747"/><path d="M1292,312L1218,493L1337,363Z" fill="#484848" stroke="#484848"/><path d="M1337,363L1218,493L1327,474Z" fill="#383838" stroke="#383838"/><path d="M1337,363L1327,474L1450,436Z" fill="#3e3e3e" stroke="#3e3e3e"/><path d="M1337,363L1450,436L1458,350Z" fill="#4a4a4a" stroke="#4a4a4a"/><path d="M-9,485L-43,562L31,578Z" fill="#939393" stroke="#939393"/><path d="M-9,485L31,578L168,542Z" fill="#909090" stroke="#909090"/><path d="M-9,485L168,542L35,407Z" fill="#a3a3a3" stroke="#a3a3a3"/><path d="M193,433L168,542L226,442Z" fill="#9d9d9d" stroke="#9d9d9d"/><path d="M226,442L168,542L282,572Z" fill="#8b8b8b" stroke="#8b8b8b"/><path d="M226,442L282,572L307,476Z" fill="#8f8f8f" stroke="#8f8f8f"/><path d="M307,476L282,572L344,557Z" fill="#808080" stroke="#808080"/><path d="M307,476L344,557L441,414Z" fill="#8f8f8f" stroke="#8f8f8f"/><path d="M441,414L344,557L459,587Z" fill="#7f7f7f" stroke="#7f7f7f"/><path d="M441,414L459,587L588,471Z" fill="#828282" stroke="#828282"/><path d="M588,471L459,587L525,590Z" fill="#6c6c6c" stroke="#6c6c6c"/><path d="M588,471L525,590L621,527Z" fill="#6e6e6e" stroke="#6e6e6e"/><path d="M588,471L621,527L656,415Z" fill="#7e7e7e" stroke="#7e7e7e"/><path d="M656,415L621,527L763,477Z" fill="#787878" stroke="#787878"/><path d="M763,477L621,527L706,583Z" fill="#636363" stroke="#636363"/><path d="M763,477L706,583L822,594Z" fill="#545454" stroke="#545454"/><path d="M763,477L822,594L861,452Z" fill="#5d5d5d" stroke="#5d5d5d"/><path d="M861,452L822,594L933,495Z" fill="#555555" stroke="#555555"/><path d="M933,495L822,594L975,539Z" fill="#464646" stroke="#464646"/><path d="M933,495L975,539L1012,528Z" fill="#454545" stroke="#454545"/><path d="M933,495L1012,528L1057,444Z" fill="#4c4c4c" stroke="#4c4c4c"/><path d="M1057,444L1012,528L1139,575Z" fill="#393939" stroke="#393939"/><path d="M1057,444L1139,575L1124,445Z" fill="#3e3e3e" stroke="#3e3e3e"/><path d="M1124,445L1139,575L1218,493Z" fill="#313131" stroke="#313131"/><path d="M1218,493L1139,575L1275,585Z" fill="#1a1a1a" stroke="#1a1a1a"/><path d="M1218,493L1275,585L1337,526Z" fill="#191919" stroke="#191919"/><path d="M1218,493L1337,526L1327,474Z" fill="#262626" stroke="#262626"/><path d="M1327,474L1337,526L1418,507Z" fill="#242424" stroke="#242424"/><path d="M1327,474L1418,507L1450,436Z" fill="#2e2e2e" stroke="#2e2e2e"/><path d="M1450,436L1418,507L1483,658Z" fill="#191919" stroke="#191919"/><path d="M-43,562L-45,654L31,578Z" fill="#808080" stroke="#808080"/><path d="M31,578L-45,654L58,685Z" fill="#7b7b7b" stroke="#7b7b7b"/><path d="M31,578L58,685L144,657Z" fill="#777777" stroke="#777777"/><path d="M31,578L144,657L168,542Z" fill="#797979" stroke="#797979"/><path d="M168,542L144,657L286,636Z" fill="#6e6e6e" stroke="#6e6e6e"/><path d="M168,542L286,636L282,572Z" fill="#737373" stroke="#737373"/><path d="M282,572L286,636L316,647Z" fill="#686868" stroke="#686868"/><path d="M282,572L316,647L344,557Z" fill="#6c6c6c" stroke="#6c6c6c"/><path d="M344,557L316,647L459,587Z" fill="#676767" stroke="#676767"/><path d="M459,587L316,647L484,613Z" fill="#616161" stroke="#616161"/><path d="M459,587L484,613L525,590Z" fill="#5f5f5f" stroke="#5f5f5f"/><path d="M525,590L484,613L520,673Z" fill="#5a5a5a" stroke="#5a5a5a"/><path d="M525,590L520,673L674,627Z" fill="#545454" stroke="#545454"/><path d="M525,590L674,627L621,527Z" fill="#5a5a5a" stroke="#5a5a5a"/><path d="M621,527L674,627L706,583Z" fill="#555555" stroke="#555555"/><path d="M706,583L674,627L785,637Z" fill="#464646" stroke="#464646"/><path d="M706,583L785,637L822,594Z" fill="#414141" stroke="#414141"/><path d="M822,594L785,637L872,691Z" fill="#3a3a3a" stroke="#3a3a3a"/><path d="M822,594L872,691L981,635Z" fill="#333333" stroke="#333333"/><path d="M822,594L981,635L975,539Z" fill="#343434" stroke="#343434"/><path d="M975,539L981,635L1010,612Z" fill="#292929" stroke="#292929"/><path d="M975,539L1010,612L1012,528Z" fill="#343434" stroke="#343434"/><path d="M1012,528L1010,612L1139,575Z" fill="#282828" stroke="#282828"/><path d="M1139,575L1010,612L1134,694Z" fill="#171717" stroke="#171717"/><path d="M1139,575L1134,694L1254,641Z" fill="#0c0c0c" stroke="#0c0c0c"/><path d="M1139,575L1254,641L1275,585Z" fill="#080808" stroke="#080808"/><path d="M1275,585L1254,641L1355,684Z" fill="#000000" stroke="#000000"/><path d="M1275,585L1355,684L1337,526Z" fill="#030303" stroke="#030303"/><path d="M1337,526L1355,684L1418,507Z" fill="#0c0c0c" stroke="#0c0c0c"/><path d="M1418,507L1355,684L1483,658Z" fill="#000000" stroke="#000000"/><path d="M-45,654L-53,766L7,769Z" fill="#7e7e7e" stroke="#7e7e7e"/><path d="M-45,654L7,769L58,685Z" fill="#7b7b7b" stroke="#7b7b7b"/><path d="M58,685L7,769L123,748Z" fill="#787878" stroke="#787878"/><path d="M58,685L123,748L144,657Z" fill="#757575" stroke="#757575"/><path d="M144,657L123,748L270,756Z" fill="#707070" stroke="#707070"/><path d="M144,657L270,756L286,636Z" fill="#6c6c6c" stroke="#6c6c6c"/><path d="M286,636L270,756L316,647Z" fill="#696969" stroke="#696969"/><path d="M316,647L270,756L326,772Z" fill="#686868" stroke="#686868"/><path d="M316,647L326,772L451,773Z" fill="#646464" stroke="#646464"/><path d="M316,647L451,773L484,613Z" fill="#616161" stroke="#616161"/><path d="M484,613L451,773L520,673Z" fill="#5c5c5c" stroke="#5c5c5c"/><path d="M520,673L451,773L521,760Z" fill="#5b5b5b" stroke="#5b5b5b"/><path d="M520,673L521,760L689,769Z" fill="#545454" stroke="#545454"/><path d="M520,673L689,769L674,627Z" fill="#4f4f4f" stroke="#4f4f4f"/><path d="M674,627L689,769L714,710Z" fill="#494949" stroke="#494949"/><path d="M674,627L714,710L785,637Z" fill="#464646" stroke="#464646"/><path d="M785,637L714,710L854,767Z" fill="#3f3f3f" stroke="#3f3f3f"/><path d="M785,637L854,767L872,691Z" fill="#393939" stroke="#393939"/><path d="M872,691L854,767L976,754Z" fill="#323232" stroke="#323232"/><path d="M872,691L976,754L981,635Z" fill="#2c2c2c" stroke="#2c2c2c"/><path d="M981,635L976,754L1065,763Z" fill="#232323" stroke="#232323"/><path d="M981,635L1065,763L1010,612Z" fill="#212121" stroke="#212121"/><path d="M1010,612L1065,763L1134,694Z" fill="#1a1a1a" stroke="#1a1a1a"/><path d="M1134,694L1065,763L1161,731Z" fill="#131313" stroke="#131313"/><path d="M1134,694L1161,731L1215,715Z" fill="#0c0c0c" stroke="#0c0c0c"/><path d="M1134,694L1215,715L1254,641Z" fill="#080808" stroke="#080808"/><path d="M1254,641L1215,715L1355,684Z" fill="#000000" stroke="#000000"/><path d="M1355,684L1215,715L1374,754Z" fill="#000000" stroke="#000000"/><path d="M1355,684L1374,754L1413,771Z" fill="#000000" stroke="#000000"/><path d="M1355,684L1413,771L1483,658Z" fill="#000000" stroke="#000000"/><path d="M7,769L326,772L123,748Z" fill="#727272" stroke="#727272"/><path d="M123,748L326,772L270,756Z" fill="#6c6c6c" stroke="#6c6c6c"/><path d="M451,773L1413,771L689,769Z" fill="#373737" stroke="#373737"/><path d="M451,773L689,769L521,760Z" fill="#565656" stroke="#565656"/><path d="M689,769L1413,771L854,767Z" fill="#262626" stroke="#262626"/><path d="M689,769L854,767L714,710Z" fill="#424242" stroke="#424242"/><path d="M854,767L1413,771L1065,763Z" fill="#151515" stroke="#151515"/><path d="M854,767L1065,763L976,754Z" fill="#292929" stroke="#292929"/><path d="M1065,763L1413,771L1374,754Z" fill="#000000" stroke="#000000"/><path d="M1065,763L1374,754L1161,731Z" fill="#080808" stroke="#080808"/><path d="M1161,731L1374,754L1215,715Z" fill="#010101" stroke="#010101"/></g></svg>